%TF.GenerationSoftware,KiCad,Pcbnew,9.0.7*%
%TF.CreationDate,2026-02-22T19:12:49-05:00*%
%TF.ProjectId,Episode4,45706973-6f64-4653-942e-6b696361645f,2*%
%TF.SameCoordinates,Original*%
%TF.FileFunction,Soldermask,Top*%
%TF.FilePolarity,Negative*%
%FSLAX46Y46*%
G04 Gerber Fmt 4.6, Leading zero omitted, Abs format (unit mm)*
G04 Created by KiCad (PCBNEW 9.0.7) date 2026-02-22 19:12:49*
%MOMM*%
%LPD*%
G01*
G04 APERTURE LIST*
G04 Aperture macros list*
%AMRoundRect*
0 Rectangle with rounded corners*
0 $1 Rounding radius*
0 $2 $3 $4 $5 $6 $7 $8 $9 X,Y pos of 4 corners*
0 Add a 4 corners polygon primitive as box body*
4,1,4,$2,$3,$4,$5,$6,$7,$8,$9,$2,$3,0*
0 Add four circle primitives for the rounded corners*
1,1,$1+$1,$2,$3*
1,1,$1+$1,$4,$5*
1,1,$1+$1,$6,$7*
1,1,$1+$1,$8,$9*
0 Add four rect primitives between the rounded corners*
20,1,$1+$1,$2,$3,$4,$5,0*
20,1,$1+$1,$4,$5,$6,$7,0*
20,1,$1+$1,$6,$7,$8,$9,0*
20,1,$1+$1,$8,$9,$2,$3,0*%
G04 Aperture macros list end*
%ADD10RoundRect,0.250000X0.337500X0.475000X-0.337500X0.475000X-0.337500X-0.475000X0.337500X-0.475000X0*%
%ADD11RoundRect,0.250000X-0.450000X0.350000X-0.450000X-0.350000X0.450000X-0.350000X0.450000X0.350000X0*%
%ADD12RoundRect,0.250000X0.550000X-1.050000X0.550000X1.050000X-0.550000X1.050000X-0.550000X-1.050000X0*%
%ADD13RoundRect,0.250000X0.475000X-0.337500X0.475000X0.337500X-0.475000X0.337500X-0.475000X-0.337500X0*%
%ADD14C,1.638000*%
%ADD15RoundRect,0.250000X-0.350000X-0.450000X0.350000X-0.450000X0.350000X0.450000X-0.350000X0.450000X0*%
%ADD16RoundRect,0.250000X-0.550000X1.050000X-0.550000X-1.050000X0.550000X-1.050000X0.550000X1.050000X0*%
%ADD17C,0.800000*%
%ADD18C,7.000000*%
%ADD19RoundRect,0.250000X-1.000000X-0.900000X1.000000X-0.900000X1.000000X0.900000X-1.000000X0.900000X0*%
%ADD20RoundRect,0.250000X-0.475000X0.337500X-0.475000X-0.337500X0.475000X-0.337500X0.475000X0.337500X0*%
%ADD21C,1.800000*%
%ADD22R,2.100000X2.100000*%
%ADD23C,2.100000*%
%ADD24C,1.950000*%
%ADD25RoundRect,0.250000X1.500000X0.550000X-1.500000X0.550000X-1.500000X-0.550000X1.500000X-0.550000X0*%
%ADD26RoundRect,0.150000X0.150000X-0.825000X0.150000X0.825000X-0.150000X0.825000X-0.150000X-0.825000X0*%
%ADD27RoundRect,0.250001X-0.462499X-0.624999X0.462499X-0.624999X0.462499X0.624999X-0.462499X0.624999X0*%
%ADD28RoundRect,0.250000X0.550000X-1.500000X0.550000X1.500000X-0.550000X1.500000X-0.550000X-1.500000X0*%
%ADD29C,0.001000*%
%ADD30C,2.000000*%
%ADD31RoundRect,0.250000X-0.550000X1.500000X-0.550000X-1.500000X0.550000X-1.500000X0.550000X1.500000X0*%
%ADD32R,1.700000X1.700000*%
%ADD33C,1.700000*%
%ADD34RoundRect,0.250000X0.450000X-0.350000X0.450000X0.350000X-0.450000X0.350000X-0.450000X-0.350000X0*%
%ADD35RoundRect,0.250000X1.000000X0.900000X-1.000000X0.900000X-1.000000X-0.900000X1.000000X-0.900000X0*%
%ADD36RoundRect,0.250000X0.350000X0.450000X-0.350000X0.450000X-0.350000X-0.450000X0.350000X-0.450000X0*%
G04 APERTURE END LIST*
D10*
%TO.C,C23*%
X48027500Y-45720000D03*
X45952500Y-45720000D03*
%TD*%
%TO.C,C17*%
X27707500Y-100330000D03*
X25632500Y-100330000D03*
%TD*%
D11*
%TO.C,R8*%
X279400000Y-119015000D03*
X279400000Y-121015000D03*
%TD*%
D10*
%TO.C,C128*%
X190267500Y-45720000D03*
X188192500Y-45720000D03*
%TD*%
%TO.C,C35*%
X68347500Y-26670000D03*
X66272500Y-26670000D03*
%TD*%
%TO.C,C47*%
X68347500Y-100330000D03*
X66272500Y-100330000D03*
%TD*%
D12*
%TO.C,C58*%
X87630000Y-82445000D03*
X87630000Y-78845000D03*
%TD*%
D13*
%TO.C,C192*%
X269875000Y-9927500D03*
X269875000Y-7852500D03*
%TD*%
D14*
%TO.C,J2*%
X39141000Y-19050000D03*
X34290000Y-19050000D03*
X39141000Y-21590000D03*
X34290000Y-21590000D03*
X39141000Y-24130000D03*
X34290000Y-24130000D03*
X39141000Y-26670000D03*
X34290000Y-26670000D03*
X39141000Y-29210000D03*
X34290000Y-29210000D03*
X39141000Y-31750000D03*
X34290000Y-31750000D03*
X39141000Y-34290000D03*
X34290000Y-34290000D03*
X39141000Y-36830000D03*
X34290000Y-36830000D03*
X39141000Y-39370000D03*
X34290000Y-39370000D03*
X39141000Y-41910000D03*
X34290000Y-41910000D03*
X39141000Y-44450000D03*
X34290000Y-44450000D03*
X39141000Y-46990000D03*
X34290000Y-46990000D03*
X39141000Y-49530000D03*
X34290000Y-49530000D03*
X39141000Y-52070000D03*
X34290000Y-52070000D03*
X39141000Y-54610000D03*
X34290000Y-54610000D03*
X39141000Y-57150000D03*
X34290000Y-57150000D03*
X39141000Y-59690000D03*
X34290000Y-59690000D03*
X39141000Y-62230000D03*
X34290000Y-62230000D03*
X39141000Y-64770000D03*
X34290000Y-64770000D03*
X39141000Y-67310000D03*
X34290000Y-67310000D03*
X39141000Y-69850000D03*
X34290000Y-69850000D03*
X39141000Y-72390000D03*
X34290000Y-72390000D03*
X39141000Y-74930000D03*
X34290000Y-74930000D03*
X39141000Y-77470000D03*
X34290000Y-77470000D03*
X39141000Y-80010000D03*
X34290000Y-80010000D03*
X39141000Y-82550000D03*
X34290000Y-82550000D03*
X39141000Y-85090000D03*
X34290000Y-85090000D03*
X39141000Y-87630000D03*
X34290000Y-87630000D03*
X39141000Y-90170000D03*
X34290000Y-90170000D03*
X39141000Y-92710000D03*
X34290000Y-92710000D03*
X39141000Y-95250000D03*
X34290000Y-95250000D03*
X39141000Y-97790000D03*
X34290000Y-97790000D03*
X39141000Y-100330000D03*
X34290000Y-100330000D03*
X39141000Y-102870000D03*
X34290000Y-102870000D03*
X39141000Y-105410000D03*
X34290000Y-105410000D03*
X39141000Y-107950000D03*
X34290000Y-107950000D03*
%TD*%
D10*
%TO.C,C22*%
X48027500Y-41910000D03*
X45952500Y-41910000D03*
%TD*%
D12*
%TO.C,C48*%
X67310000Y-108480000D03*
X67310000Y-104880000D03*
%TD*%
D10*
%TO.C,C14*%
X27707500Y-87630000D03*
X25632500Y-87630000D03*
%TD*%
D13*
%TO.C,C198*%
X276225000Y-9927500D03*
X276225000Y-7852500D03*
%TD*%
D10*
%TO.C,C89*%
X129307500Y-87630000D03*
X127232500Y-87630000D03*
%TD*%
D15*
%TO.C,R1*%
X164100000Y-114935000D03*
X166100000Y-114935000D03*
%TD*%
D10*
%TO.C,C80*%
X129307500Y-26670000D03*
X127232500Y-26670000D03*
%TD*%
D16*
%TO.C,C64*%
X107950000Y-18520000D03*
X107950000Y-22120000D03*
%TD*%
D12*
%TO.C,C24*%
X46990000Y-53870000D03*
X46990000Y-50270000D03*
%TD*%
D10*
%TO.C,C161*%
X230907500Y-66040000D03*
X228832500Y-66040000D03*
%TD*%
%TO.C,C122*%
X169947500Y-100330000D03*
X167872500Y-100330000D03*
%TD*%
D14*
%TO.C,J3*%
X59461000Y-19050000D03*
X54610000Y-19050000D03*
X59461000Y-21590000D03*
X54610000Y-21590000D03*
X59461000Y-24130000D03*
X54610000Y-24130000D03*
X59461000Y-26670000D03*
X54610000Y-26670000D03*
X59461000Y-29210000D03*
X54610000Y-29210000D03*
X59461000Y-31750000D03*
X54610000Y-31750000D03*
X59461000Y-34290000D03*
X54610000Y-34290000D03*
X59461000Y-36830000D03*
X54610000Y-36830000D03*
X59461000Y-39370000D03*
X54610000Y-39370000D03*
X59461000Y-41910000D03*
X54610000Y-41910000D03*
X59461000Y-44450000D03*
X54610000Y-44450000D03*
X59461000Y-46990000D03*
X54610000Y-46990000D03*
X59461000Y-49530000D03*
X54610000Y-49530000D03*
X59461000Y-52070000D03*
X54610000Y-52070000D03*
X59461000Y-54610000D03*
X54610000Y-54610000D03*
X59461000Y-57150000D03*
X54610000Y-57150000D03*
X59461000Y-59690000D03*
X54610000Y-59690000D03*
X59461000Y-62230000D03*
X54610000Y-62230000D03*
X59461000Y-64770000D03*
X54610000Y-64770000D03*
X59461000Y-67310000D03*
X54610000Y-67310000D03*
X59461000Y-69850000D03*
X54610000Y-69850000D03*
X59461000Y-72390000D03*
X54610000Y-72390000D03*
X59461000Y-74930000D03*
X54610000Y-74930000D03*
X59461000Y-77470000D03*
X54610000Y-77470000D03*
X59461000Y-80010000D03*
X54610000Y-80010000D03*
X59461000Y-82550000D03*
X54610000Y-82550000D03*
X59461000Y-85090000D03*
X54610000Y-85090000D03*
X59461000Y-87630000D03*
X54610000Y-87630000D03*
X59461000Y-90170000D03*
X54610000Y-90170000D03*
X59461000Y-92710000D03*
X54610000Y-92710000D03*
X59461000Y-95250000D03*
X54610000Y-95250000D03*
X59461000Y-97790000D03*
X54610000Y-97790000D03*
X59461000Y-100330000D03*
X54610000Y-100330000D03*
X59461000Y-102870000D03*
X54610000Y-102870000D03*
X59461000Y-105410000D03*
X54610000Y-105410000D03*
X59461000Y-107950000D03*
X54610000Y-107950000D03*
%TD*%
D12*
%TO.C,C144*%
X209550000Y-53870000D03*
X209550000Y-50270000D03*
%TD*%
D10*
%TO.C,C125*%
X190267500Y-26670000D03*
X188192500Y-26670000D03*
%TD*%
D12*
%TO.C,C73*%
X107950000Y-82445000D03*
X107950000Y-78845000D03*
%TD*%
D17*
%TO.C,H10*%
X288205000Y-120650000D03*
X288973845Y-118793845D03*
X288973845Y-122506155D03*
X290830000Y-118025000D03*
D18*
X290830000Y-120650000D03*
D17*
X290830000Y-123275000D03*
X292686155Y-118793845D03*
X292686155Y-122506155D03*
X293455000Y-120650000D03*
%TD*%
D13*
%TO.C,C185*%
X248285000Y-121052500D03*
X248285000Y-118977500D03*
%TD*%
D10*
%TO.C,C71*%
X108987500Y-66040000D03*
X106912500Y-66040000D03*
%TD*%
%TO.C,C40*%
X68347500Y-62230000D03*
X66272500Y-62230000D03*
%TD*%
%TO.C,C96*%
X149627500Y-30480000D03*
X147552500Y-30480000D03*
%TD*%
D17*
%TO.C,H2*%
X3725000Y-120650000D03*
X4493845Y-118793845D03*
X4493845Y-122506155D03*
X6350000Y-118025000D03*
D18*
X6350000Y-120650000D03*
D17*
X6350000Y-123275000D03*
X8206155Y-118793845D03*
X8206155Y-122506155D03*
X8975000Y-120650000D03*
%TD*%
D10*
%TO.C,C131*%
X190267500Y-66040000D03*
X188192500Y-66040000D03*
%TD*%
D13*
%TO.C,C196*%
X273050000Y-34057500D03*
X273050000Y-31982500D03*
%TD*%
D12*
%TO.C,C117*%
X168910000Y-74190000D03*
X168910000Y-70590000D03*
%TD*%
%TO.C,C12*%
X26670000Y-74190000D03*
X26670000Y-70590000D03*
%TD*%
D10*
%TO.C,C126*%
X190267500Y-30480000D03*
X188192500Y-30480000D03*
%TD*%
D19*
%TO.C,D4*%
X51825000Y-6350000D03*
X56125000Y-6350000D03*
%TD*%
D10*
%TO.C,C120*%
X169947500Y-91440000D03*
X167872500Y-91440000D03*
%TD*%
%TO.C,C11*%
X27707500Y-66040000D03*
X25632500Y-66040000D03*
%TD*%
D12*
%TO.C,C123*%
X168910000Y-108480000D03*
X168910000Y-104880000D03*
%TD*%
D13*
%TO.C,C197*%
X273050000Y-58187500D03*
X273050000Y-56112500D03*
%TD*%
D10*
%TO.C,C76*%
X108987500Y-96520000D03*
X106912500Y-96520000D03*
%TD*%
D12*
%TO.C,C63*%
X87630000Y-108480000D03*
X87630000Y-104880000D03*
%TD*%
D10*
%TO.C,C59*%
X88667500Y-87630000D03*
X86592500Y-87630000D03*
%TD*%
%TO.C,C107*%
X149627500Y-100330000D03*
X147552500Y-100330000D03*
%TD*%
D16*
%TO.C,C154*%
X229870000Y-18520000D03*
X229870000Y-22120000D03*
%TD*%
D14*
%TO.C,J7*%
X140741000Y-19050000D03*
X135890000Y-19050000D03*
X140741000Y-21590000D03*
X135890000Y-21590000D03*
X140741000Y-24130000D03*
X135890000Y-24130000D03*
X140741000Y-26670000D03*
X135890000Y-26670000D03*
X140741000Y-29210000D03*
X135890000Y-29210000D03*
X140741000Y-31750000D03*
X135890000Y-31750000D03*
X140741000Y-34290000D03*
X135890000Y-34290000D03*
X140741000Y-36830000D03*
X135890000Y-36830000D03*
X140741000Y-39370000D03*
X135890000Y-39370000D03*
X140741000Y-41910000D03*
X135890000Y-41910000D03*
X140741000Y-44450000D03*
X135890000Y-44450000D03*
X140741000Y-46990000D03*
X135890000Y-46990000D03*
X140741000Y-49530000D03*
X135890000Y-49530000D03*
X140741000Y-52070000D03*
X135890000Y-52070000D03*
X140741000Y-54610000D03*
X135890000Y-54610000D03*
X140741000Y-57150000D03*
X135890000Y-57150000D03*
X140741000Y-59690000D03*
X135890000Y-59690000D03*
X140741000Y-62230000D03*
X135890000Y-62230000D03*
X140741000Y-64770000D03*
X135890000Y-64770000D03*
X140741000Y-67310000D03*
X135890000Y-67310000D03*
X140741000Y-69850000D03*
X135890000Y-69850000D03*
X140741000Y-72390000D03*
X135890000Y-72390000D03*
X140741000Y-74930000D03*
X135890000Y-74930000D03*
X140741000Y-77470000D03*
X135890000Y-77470000D03*
X140741000Y-80010000D03*
X135890000Y-80010000D03*
X140741000Y-82550000D03*
X135890000Y-82550000D03*
X140741000Y-85090000D03*
X135890000Y-85090000D03*
X140741000Y-87630000D03*
X135890000Y-87630000D03*
X140741000Y-90170000D03*
X135890000Y-90170000D03*
X140741000Y-92710000D03*
X135890000Y-92710000D03*
X140741000Y-95250000D03*
X135890000Y-95250000D03*
X140741000Y-97790000D03*
X135890000Y-97790000D03*
X140741000Y-100330000D03*
X135890000Y-100330000D03*
X140741000Y-102870000D03*
X135890000Y-102870000D03*
X140741000Y-105410000D03*
X135890000Y-105410000D03*
X140741000Y-107950000D03*
X135890000Y-107950000D03*
%TD*%
D10*
%TO.C,C113*%
X169947500Y-45720000D03*
X167872500Y-45720000D03*
%TD*%
D20*
%TO.C,C203*%
X282575000Y-88730000D03*
X282575000Y-90805000D03*
%TD*%
D10*
%TO.C,C158*%
X230907500Y-45720000D03*
X228832500Y-45720000D03*
%TD*%
%TO.C,C36*%
X68347500Y-30480000D03*
X66272500Y-30480000D03*
%TD*%
%TO.C,C156*%
X230907500Y-30480000D03*
X228832500Y-30480000D03*
%TD*%
%TO.C,C26*%
X48027500Y-66040000D03*
X45952500Y-66040000D03*
%TD*%
D12*
%TO.C,C114*%
X168910000Y-53870000D03*
X168910000Y-50270000D03*
%TD*%
D21*
%TO.C,SW1*%
X282015000Y-110953000D03*
X282015000Y-102153000D03*
D22*
X275815000Y-104053000D03*
D23*
X288215000Y-104053000D03*
X275815000Y-109053000D03*
X288215000Y-109053000D03*
D24*
X282015000Y-99953000D03*
X282015000Y-113153000D03*
%TD*%
D20*
%TO.C,C207*%
X292735000Y-88730000D03*
X292735000Y-90805000D03*
%TD*%
D10*
%TO.C,C137*%
X190267500Y-100330000D03*
X188192500Y-100330000D03*
%TD*%
%TO.C,C142*%
X210587500Y-41910000D03*
X208512500Y-41910000D03*
%TD*%
%TO.C,C66*%
X108987500Y-30480000D03*
X106912500Y-30480000D03*
%TD*%
%TO.C,C68*%
X108987500Y-45720000D03*
X106912500Y-45720000D03*
%TD*%
D12*
%TO.C,C184*%
X250190000Y-108480000D03*
X250190000Y-104880000D03*
%TD*%
%TO.C,C133*%
X189230000Y-82445000D03*
X189230000Y-78845000D03*
%TD*%
D10*
%TO.C,C61*%
X88667500Y-96520000D03*
X86592500Y-96520000D03*
%TD*%
D14*
%TO.C,J9*%
X181381000Y-19050000D03*
X176530000Y-19050000D03*
X181381000Y-21590000D03*
X176530000Y-21590000D03*
X181381000Y-24130000D03*
X176530000Y-24130000D03*
X181381000Y-26670000D03*
X176530000Y-26670000D03*
X181381000Y-29210000D03*
X176530000Y-29210000D03*
X181381000Y-31750000D03*
X176530000Y-31750000D03*
X181381000Y-34290000D03*
X176530000Y-34290000D03*
X181381000Y-36830000D03*
X176530000Y-36830000D03*
X181381000Y-39370000D03*
X176530000Y-39370000D03*
X181381000Y-41910000D03*
X176530000Y-41910000D03*
X181381000Y-44450000D03*
X176530000Y-44450000D03*
X181381000Y-46990000D03*
X176530000Y-46990000D03*
X181381000Y-49530000D03*
X176530000Y-49530000D03*
X181381000Y-52070000D03*
X176530000Y-52070000D03*
X181381000Y-54610000D03*
X176530000Y-54610000D03*
X181381000Y-57150000D03*
X176530000Y-57150000D03*
X181381000Y-59690000D03*
X176530000Y-59690000D03*
X181381000Y-62230000D03*
X176530000Y-62230000D03*
X181381000Y-64770000D03*
X176530000Y-64770000D03*
X181381000Y-67310000D03*
X176530000Y-67310000D03*
X181381000Y-69850000D03*
X176530000Y-69850000D03*
X181381000Y-72390000D03*
X176530000Y-72390000D03*
X181381000Y-74930000D03*
X176530000Y-74930000D03*
X181381000Y-77470000D03*
X176530000Y-77470000D03*
X181381000Y-80010000D03*
X176530000Y-80010000D03*
X181381000Y-82550000D03*
X176530000Y-82550000D03*
X181381000Y-85090000D03*
X176530000Y-85090000D03*
X181381000Y-87630000D03*
X176530000Y-87630000D03*
X181381000Y-90170000D03*
X176530000Y-90170000D03*
X181381000Y-92710000D03*
X176530000Y-92710000D03*
X181381000Y-95250000D03*
X176530000Y-95250000D03*
X181381000Y-97790000D03*
X176530000Y-97790000D03*
X181381000Y-100330000D03*
X176530000Y-100330000D03*
X181381000Y-102870000D03*
X176530000Y-102870000D03*
X181381000Y-105410000D03*
X176530000Y-105410000D03*
X181381000Y-107950000D03*
X176530000Y-107950000D03*
%TD*%
%TO.C,J11*%
X222021000Y-19050000D03*
X217170000Y-19050000D03*
X222021000Y-21590000D03*
X217170000Y-21590000D03*
X222021000Y-24130000D03*
X217170000Y-24130000D03*
X222021000Y-26670000D03*
X217170000Y-26670000D03*
X222021000Y-29210000D03*
X217170000Y-29210000D03*
X222021000Y-31750000D03*
X217170000Y-31750000D03*
X222021000Y-34290000D03*
X217170000Y-34290000D03*
X222021000Y-36830000D03*
X217170000Y-36830000D03*
X222021000Y-39370000D03*
X217170000Y-39370000D03*
X222021000Y-41910000D03*
X217170000Y-41910000D03*
X222021000Y-44450000D03*
X217170000Y-44450000D03*
X222021000Y-46990000D03*
X217170000Y-46990000D03*
X222021000Y-49530000D03*
X217170000Y-49530000D03*
X222021000Y-52070000D03*
X217170000Y-52070000D03*
X222021000Y-54610000D03*
X217170000Y-54610000D03*
X222021000Y-57150000D03*
X217170000Y-57150000D03*
X222021000Y-59690000D03*
X217170000Y-59690000D03*
X222021000Y-62230000D03*
X217170000Y-62230000D03*
X222021000Y-64770000D03*
X217170000Y-64770000D03*
X222021000Y-67310000D03*
X217170000Y-67310000D03*
X222021000Y-69850000D03*
X217170000Y-69850000D03*
X222021000Y-72390000D03*
X217170000Y-72390000D03*
X222021000Y-74930000D03*
X217170000Y-74930000D03*
X222021000Y-77470000D03*
X217170000Y-77470000D03*
X222021000Y-80010000D03*
X217170000Y-80010000D03*
X222021000Y-82550000D03*
X217170000Y-82550000D03*
X222021000Y-85090000D03*
X217170000Y-85090000D03*
X222021000Y-87630000D03*
X217170000Y-87630000D03*
X222021000Y-90170000D03*
X217170000Y-90170000D03*
X222021000Y-92710000D03*
X217170000Y-92710000D03*
X222021000Y-95250000D03*
X217170000Y-95250000D03*
X222021000Y-97790000D03*
X217170000Y-97790000D03*
X222021000Y-100330000D03*
X217170000Y-100330000D03*
X222021000Y-102870000D03*
X217170000Y-102870000D03*
X222021000Y-105410000D03*
X217170000Y-105410000D03*
X222021000Y-107950000D03*
X217170000Y-107950000D03*
%TD*%
D10*
%TO.C,C165*%
X230907500Y-91440000D03*
X228832500Y-91440000D03*
%TD*%
%TO.C,C130*%
X190267500Y-62230000D03*
X188192500Y-62230000D03*
%TD*%
%TO.C,C183*%
X251227500Y-100330000D03*
X249152500Y-100330000D03*
%TD*%
D12*
%TO.C,C178*%
X250190000Y-74190000D03*
X250190000Y-70590000D03*
%TD*%
%TO.C,C99*%
X148590000Y-53870000D03*
X148590000Y-50270000D03*
%TD*%
D10*
%TO.C,C160*%
X230907500Y-62230000D03*
X228832500Y-62230000D03*
%TD*%
D12*
%TO.C,C168*%
X229870000Y-108480000D03*
X229870000Y-104880000D03*
%TD*%
D16*
%TO.C,C49*%
X87630000Y-18520000D03*
X87630000Y-22120000D03*
%TD*%
D10*
%TO.C,C77*%
X108987500Y-100330000D03*
X106912500Y-100330000D03*
%TD*%
D20*
%TO.C,C204*%
X285115000Y-88730000D03*
X285115000Y-90805000D03*
%TD*%
D12*
%TO.C,C13*%
X26670000Y-83080000D03*
X26670000Y-79480000D03*
%TD*%
D10*
%TO.C,C21*%
X48027500Y-30480000D03*
X45952500Y-30480000D03*
%TD*%
D14*
%TO.C,J13*%
X262661000Y-19050000D03*
X257810000Y-19050000D03*
X262661000Y-21590000D03*
X257810000Y-21590000D03*
X262661000Y-24130000D03*
X257810000Y-24130000D03*
X262661000Y-26670000D03*
X257810000Y-26670000D03*
X262661000Y-29210000D03*
X257810000Y-29210000D03*
X262661000Y-31750000D03*
X257810000Y-31750000D03*
X262661000Y-34290000D03*
X257810000Y-34290000D03*
X262661000Y-36830000D03*
X257810000Y-36830000D03*
X262661000Y-39370000D03*
X257810000Y-39370000D03*
X262661000Y-41910000D03*
X257810000Y-41910000D03*
X262661000Y-44450000D03*
X257810000Y-44450000D03*
X262661000Y-46990000D03*
X257810000Y-46990000D03*
X262661000Y-49530000D03*
X257810000Y-49530000D03*
X262661000Y-52070000D03*
X257810000Y-52070000D03*
X262661000Y-54610000D03*
X257810000Y-54610000D03*
X262661000Y-57150000D03*
X257810000Y-57150000D03*
X262661000Y-59690000D03*
X257810000Y-59690000D03*
X262661000Y-62230000D03*
X257810000Y-62230000D03*
X262661000Y-64770000D03*
X257810000Y-64770000D03*
X262661000Y-67310000D03*
X257810000Y-67310000D03*
X262661000Y-69850000D03*
X257810000Y-69850000D03*
X262661000Y-72390000D03*
X257810000Y-72390000D03*
X262661000Y-74930000D03*
X257810000Y-74930000D03*
X262661000Y-77470000D03*
X257810000Y-77470000D03*
X262661000Y-80010000D03*
X257810000Y-80010000D03*
X262661000Y-82550000D03*
X257810000Y-82550000D03*
X262661000Y-85090000D03*
X257810000Y-85090000D03*
X262661000Y-87630000D03*
X257810000Y-87630000D03*
X262661000Y-90170000D03*
X257810000Y-90170000D03*
X262661000Y-92710000D03*
X257810000Y-92710000D03*
X262661000Y-95250000D03*
X257810000Y-95250000D03*
X262661000Y-97790000D03*
X257810000Y-97790000D03*
X262661000Y-100330000D03*
X257810000Y-100330000D03*
X262661000Y-102870000D03*
X257810000Y-102870000D03*
X262661000Y-105410000D03*
X257810000Y-105410000D03*
X262661000Y-107950000D03*
X257810000Y-107950000D03*
%TD*%
D10*
%TO.C,C31*%
X48027500Y-96520000D03*
X45952500Y-96520000D03*
%TD*%
D20*
%TO.C,C206*%
X290195000Y-88730000D03*
X290195000Y-90805000D03*
%TD*%
D10*
%TO.C,C119*%
X169947500Y-87630000D03*
X167872500Y-87630000D03*
%TD*%
%TO.C,C127*%
X190267500Y-41910000D03*
X188192500Y-41910000D03*
%TD*%
D12*
%TO.C,C162*%
X229870000Y-74190000D03*
X229870000Y-70590000D03*
%TD*%
D25*
%TO.C,C201*%
X288450000Y-74930000D03*
X283050000Y-74930000D03*
%TD*%
D10*
%TO.C,C45*%
X68347500Y-91440000D03*
X66272500Y-91440000D03*
%TD*%
D12*
%TO.C,C18*%
X26670000Y-108480000D03*
X26670000Y-104880000D03*
%TD*%
D10*
%TO.C,C41*%
X68347500Y-66040000D03*
X66272500Y-66040000D03*
%TD*%
D14*
%TO.C,J10*%
X201701000Y-19050000D03*
X196850000Y-19050000D03*
X201701000Y-21590000D03*
X196850000Y-21590000D03*
X201701000Y-24130000D03*
X196850000Y-24130000D03*
X201701000Y-26670000D03*
X196850000Y-26670000D03*
X201701000Y-29210000D03*
X196850000Y-29210000D03*
X201701000Y-31750000D03*
X196850000Y-31750000D03*
X201701000Y-34290000D03*
X196850000Y-34290000D03*
X201701000Y-36830000D03*
X196850000Y-36830000D03*
X201701000Y-39370000D03*
X196850000Y-39370000D03*
X201701000Y-41910000D03*
X196850000Y-41910000D03*
X201701000Y-44450000D03*
X196850000Y-44450000D03*
X201701000Y-46990000D03*
X196850000Y-46990000D03*
X201701000Y-49530000D03*
X196850000Y-49530000D03*
X201701000Y-52070000D03*
X196850000Y-52070000D03*
X201701000Y-54610000D03*
X196850000Y-54610000D03*
X201701000Y-57150000D03*
X196850000Y-57150000D03*
X201701000Y-59690000D03*
X196850000Y-59690000D03*
X201701000Y-62230000D03*
X196850000Y-62230000D03*
X201701000Y-64770000D03*
X196850000Y-64770000D03*
X201701000Y-67310000D03*
X196850000Y-67310000D03*
X201701000Y-69850000D03*
X196850000Y-69850000D03*
X201701000Y-72390000D03*
X196850000Y-72390000D03*
X201701000Y-74930000D03*
X196850000Y-74930000D03*
X201701000Y-77470000D03*
X196850000Y-77470000D03*
X201701000Y-80010000D03*
X196850000Y-80010000D03*
X201701000Y-82550000D03*
X196850000Y-82550000D03*
X201701000Y-85090000D03*
X196850000Y-85090000D03*
X201701000Y-87630000D03*
X196850000Y-87630000D03*
X201701000Y-90170000D03*
X196850000Y-90170000D03*
X201701000Y-92710000D03*
X196850000Y-92710000D03*
X201701000Y-95250000D03*
X196850000Y-95250000D03*
X201701000Y-97790000D03*
X196850000Y-97790000D03*
X201701000Y-100330000D03*
X196850000Y-100330000D03*
X201701000Y-102870000D03*
X196850000Y-102870000D03*
X201701000Y-105410000D03*
X196850000Y-105410000D03*
X201701000Y-107950000D03*
X196850000Y-107950000D03*
%TD*%
D26*
%TO.C,U2*%
X254000000Y-122555000D03*
X255270000Y-122555000D03*
X256540000Y-122555000D03*
X257810000Y-122555000D03*
X259080000Y-122555000D03*
X260350000Y-122555000D03*
X261620000Y-122555000D03*
X261620000Y-117605000D03*
X260350000Y-117605000D03*
X259080000Y-117605000D03*
X257810000Y-117605000D03*
X256540000Y-117605000D03*
X255270000Y-117605000D03*
X254000000Y-117605000D03*
%TD*%
D27*
%TO.C,D9*%
X201712500Y-118110000D03*
X204687500Y-118110000D03*
%TD*%
D10*
%TO.C,C105*%
X149627500Y-91440000D03*
X147552500Y-91440000D03*
%TD*%
D20*
%TO.C,C205*%
X287655000Y-88730000D03*
X287655000Y-90805000D03*
%TD*%
D28*
%TO.C,C188*%
X273050000Y-47150000D03*
X273050000Y-41750000D03*
%TD*%
D10*
%TO.C,C104*%
X149627500Y-87630000D03*
X147552500Y-87630000D03*
%TD*%
%TO.C,C135*%
X190267500Y-91440000D03*
X188192500Y-91440000D03*
%TD*%
D27*
%TO.C,D6*%
X163612500Y-118110000D03*
X166587500Y-118110000D03*
%TD*%
D10*
%TO.C,C46*%
X68347500Y-96520000D03*
X66272500Y-96520000D03*
%TD*%
%TO.C,C2*%
X27707500Y-26670000D03*
X25632500Y-26670000D03*
%TD*%
%TO.C,C92*%
X129307500Y-100330000D03*
X127232500Y-100330000D03*
%TD*%
D12*
%TO.C,C179*%
X250190000Y-82445000D03*
X250190000Y-78845000D03*
%TD*%
D10*
%TO.C,C150*%
X210587500Y-91440000D03*
X208512500Y-91440000D03*
%TD*%
%TO.C,C5*%
X27707500Y-38205000D03*
X25632500Y-38205000D03*
%TD*%
%TO.C,C166*%
X230907500Y-96520000D03*
X228832500Y-96520000D03*
%TD*%
D14*
%TO.C,J5*%
X100101000Y-19050000D03*
X95250000Y-19050000D03*
X100101000Y-21590000D03*
X95250000Y-21590000D03*
X100101000Y-24130000D03*
X95250000Y-24130000D03*
X100101000Y-26670000D03*
X95250000Y-26670000D03*
X100101000Y-29210000D03*
X95250000Y-29210000D03*
X100101000Y-31750000D03*
X95250000Y-31750000D03*
X100101000Y-34290000D03*
X95250000Y-34290000D03*
X100101000Y-36830000D03*
X95250000Y-36830000D03*
X100101000Y-39370000D03*
X95250000Y-39370000D03*
X100101000Y-41910000D03*
X95250000Y-41910000D03*
X100101000Y-44450000D03*
X95250000Y-44450000D03*
X100101000Y-46990000D03*
X95250000Y-46990000D03*
X100101000Y-49530000D03*
X95250000Y-49530000D03*
X100101000Y-52070000D03*
X95250000Y-52070000D03*
X100101000Y-54610000D03*
X95250000Y-54610000D03*
X100101000Y-57150000D03*
X95250000Y-57150000D03*
X100101000Y-59690000D03*
X95250000Y-59690000D03*
X100101000Y-62230000D03*
X95250000Y-62230000D03*
X100101000Y-64770000D03*
X95250000Y-64770000D03*
X100101000Y-67310000D03*
X95250000Y-67310000D03*
X100101000Y-69850000D03*
X95250000Y-69850000D03*
X100101000Y-72390000D03*
X95250000Y-72390000D03*
X100101000Y-74930000D03*
X95250000Y-74930000D03*
X100101000Y-77470000D03*
X95250000Y-77470000D03*
X100101000Y-80010000D03*
X95250000Y-80010000D03*
X100101000Y-82550000D03*
X95250000Y-82550000D03*
X100101000Y-85090000D03*
X95250000Y-85090000D03*
X100101000Y-87630000D03*
X95250000Y-87630000D03*
X100101000Y-90170000D03*
X95250000Y-90170000D03*
X100101000Y-92710000D03*
X95250000Y-92710000D03*
X100101000Y-95250000D03*
X95250000Y-95250000D03*
X100101000Y-97790000D03*
X95250000Y-97790000D03*
X100101000Y-100330000D03*
X95250000Y-100330000D03*
X100101000Y-102870000D03*
X95250000Y-102870000D03*
X100101000Y-105410000D03*
X95250000Y-105410000D03*
X100101000Y-107950000D03*
X95250000Y-107950000D03*
%TD*%
D10*
%TO.C,C155*%
X230907500Y-26670000D03*
X228832500Y-26670000D03*
%TD*%
D15*
%TO.C,R2*%
X176800000Y-114935000D03*
X178800000Y-114935000D03*
%TD*%
D10*
%TO.C,C110*%
X169947500Y-26670000D03*
X167872500Y-26670000D03*
%TD*%
%TO.C,C141*%
X210587500Y-30480000D03*
X208512500Y-30480000D03*
%TD*%
%TO.C,C145*%
X210587500Y-62230000D03*
X208512500Y-62230000D03*
%TD*%
D29*
%TO.C,J14*%
X290195000Y-68045000D03*
D30*
X285155000Y-63345000D03*
X285155000Y-59145000D03*
X285155000Y-54945000D03*
X285155000Y-50745000D03*
X285155000Y-46545000D03*
X285155000Y-42345000D03*
X285155000Y-38145000D03*
X285155000Y-33945000D03*
X285155000Y-29745000D03*
X285155000Y-25545000D03*
X285155000Y-21345000D03*
X285155000Y-17145000D03*
X290655000Y-63345000D03*
X290655000Y-59145000D03*
X290655000Y-54945000D03*
X290655000Y-50745000D03*
X290655000Y-46545000D03*
X290655000Y-42345000D03*
X290655000Y-38145000D03*
X290655000Y-33945000D03*
X290655000Y-29745000D03*
X290655000Y-25545000D03*
X290655000Y-21345000D03*
X290655000Y-17145000D03*
%TD*%
D16*
%TO.C,C19*%
X46990000Y-18520000D03*
X46990000Y-22120000D03*
%TD*%
D10*
%TO.C,C38*%
X68347500Y-45720000D03*
X66272500Y-45720000D03*
%TD*%
D27*
%TO.C,D7*%
X176312500Y-118110000D03*
X179287500Y-118110000D03*
%TD*%
D10*
%TO.C,C95*%
X149627500Y-26670000D03*
X147552500Y-26670000D03*
%TD*%
D12*
%TO.C,C33*%
X46990000Y-108480000D03*
X46990000Y-104880000D03*
%TD*%
D10*
%TO.C,C140*%
X210587500Y-26670000D03*
X208512500Y-26670000D03*
%TD*%
%TO.C,C20*%
X48027500Y-26670000D03*
X45952500Y-26670000D03*
%TD*%
D12*
%TO.C,C147*%
X209550000Y-74190000D03*
X209550000Y-70590000D03*
%TD*%
D10*
%TO.C,C101*%
X149627500Y-66040000D03*
X147552500Y-66040000D03*
%TD*%
%TO.C,C75*%
X108987500Y-91440000D03*
X106912500Y-91440000D03*
%TD*%
D13*
%TO.C,C200*%
X276225000Y-58187500D03*
X276225000Y-56112500D03*
%TD*%
D10*
%TO.C,C121*%
X169947500Y-96520000D03*
X167872500Y-96520000D03*
%TD*%
D14*
%TO.C,J6*%
X120421000Y-19050000D03*
X115570000Y-19050000D03*
X120421000Y-21590000D03*
X115570000Y-21590000D03*
X120421000Y-24130000D03*
X115570000Y-24130000D03*
X120421000Y-26670000D03*
X115570000Y-26670000D03*
X120421000Y-29210000D03*
X115570000Y-29210000D03*
X120421000Y-31750000D03*
X115570000Y-31750000D03*
X120421000Y-34290000D03*
X115570000Y-34290000D03*
X120421000Y-36830000D03*
X115570000Y-36830000D03*
X120421000Y-39370000D03*
X115570000Y-39370000D03*
X120421000Y-41910000D03*
X115570000Y-41910000D03*
X120421000Y-44450000D03*
X115570000Y-44450000D03*
X120421000Y-46990000D03*
X115570000Y-46990000D03*
X120421000Y-49530000D03*
X115570000Y-49530000D03*
X120421000Y-52070000D03*
X115570000Y-52070000D03*
X120421000Y-54610000D03*
X115570000Y-54610000D03*
X120421000Y-57150000D03*
X115570000Y-57150000D03*
X120421000Y-59690000D03*
X115570000Y-59690000D03*
X120421000Y-62230000D03*
X115570000Y-62230000D03*
X120421000Y-64770000D03*
X115570000Y-64770000D03*
X120421000Y-67310000D03*
X115570000Y-67310000D03*
X120421000Y-69850000D03*
X115570000Y-69850000D03*
X120421000Y-72390000D03*
X115570000Y-72390000D03*
X120421000Y-74930000D03*
X115570000Y-74930000D03*
X120421000Y-77470000D03*
X115570000Y-77470000D03*
X120421000Y-80010000D03*
X115570000Y-80010000D03*
X120421000Y-82550000D03*
X115570000Y-82550000D03*
X120421000Y-85090000D03*
X115570000Y-85090000D03*
X120421000Y-87630000D03*
X115570000Y-87630000D03*
X120421000Y-90170000D03*
X115570000Y-90170000D03*
X120421000Y-92710000D03*
X115570000Y-92710000D03*
X120421000Y-95250000D03*
X115570000Y-95250000D03*
X120421000Y-97790000D03*
X115570000Y-97790000D03*
X120421000Y-100330000D03*
X115570000Y-100330000D03*
X120421000Y-102870000D03*
X115570000Y-102870000D03*
X120421000Y-105410000D03*
X115570000Y-105410000D03*
X120421000Y-107950000D03*
X115570000Y-107950000D03*
%TD*%
D10*
%TO.C,C53*%
X88667500Y-45720000D03*
X86592500Y-45720000D03*
%TD*%
D12*
%TO.C,C27*%
X46990000Y-74190000D03*
X46990000Y-70590000D03*
%TD*%
D13*
%TO.C,C193*%
X269875000Y-34057500D03*
X269875000Y-31982500D03*
%TD*%
D16*
%TO.C,C124*%
X189230000Y-18520000D03*
X189230000Y-22120000D03*
%TD*%
D10*
%TO.C,C16*%
X27707500Y-96520000D03*
X25632500Y-96520000D03*
%TD*%
D27*
%TO.C,D8*%
X189012500Y-118110000D03*
X191987500Y-118110000D03*
%TD*%
D16*
%TO.C,C94*%
X148590000Y-18520000D03*
X148590000Y-22120000D03*
%TD*%
D10*
%TO.C,C134*%
X190267500Y-87630000D03*
X188192500Y-87630000D03*
%TD*%
%TO.C,C29*%
X48027500Y-87630000D03*
X45952500Y-87630000D03*
%TD*%
D31*
%TO.C,C187*%
X273050000Y-17620000D03*
X273050000Y-23020000D03*
%TD*%
D10*
%TO.C,C151*%
X210587500Y-96520000D03*
X208512500Y-96520000D03*
%TD*%
D19*
%TO.C,D2*%
X27695000Y-6350000D03*
X31995000Y-6350000D03*
%TD*%
D10*
%TO.C,C50*%
X88667500Y-26670000D03*
X86592500Y-26670000D03*
%TD*%
D12*
%TO.C,C84*%
X128270000Y-53870000D03*
X128270000Y-50270000D03*
%TD*%
%TO.C,C102*%
X148590000Y-74190000D03*
X148590000Y-70590000D03*
%TD*%
D17*
%TO.C,H8*%
X217085000Y-120650000D03*
X217853845Y-118793845D03*
X217853845Y-122506155D03*
X219710000Y-118025000D03*
D18*
X219710000Y-120650000D03*
D17*
X219710000Y-123275000D03*
X221566155Y-118793845D03*
X221566155Y-122506155D03*
X222335000Y-120650000D03*
%TD*%
D26*
%TO.C,U1*%
X233680000Y-122490000D03*
X234950000Y-122490000D03*
X236220000Y-122490000D03*
X237490000Y-122490000D03*
X238760000Y-122490000D03*
X240030000Y-122490000D03*
X241300000Y-122490000D03*
X241300000Y-117540000D03*
X240030000Y-117540000D03*
X238760000Y-117540000D03*
X237490000Y-117540000D03*
X236220000Y-117540000D03*
X234950000Y-117540000D03*
X233680000Y-117540000D03*
%TD*%
D13*
%TO.C,C194*%
X269875000Y-58187500D03*
X269875000Y-56112500D03*
%TD*%
D10*
%TO.C,C157*%
X230907500Y-41910000D03*
X228832500Y-41910000D03*
%TD*%
%TO.C,C97*%
X149627500Y-41910000D03*
X147552500Y-41910000D03*
%TD*%
D13*
%TO.C,C199*%
X276225000Y-34057500D03*
X276225000Y-31982500D03*
%TD*%
D10*
%TO.C,C182*%
X251227500Y-96520000D03*
X249152500Y-96520000D03*
%TD*%
%TO.C,C37*%
X68347500Y-41910000D03*
X66272500Y-41910000D03*
%TD*%
%TO.C,C90*%
X129307500Y-91440000D03*
X127232500Y-91440000D03*
%TD*%
D12*
%TO.C,C78*%
X107950000Y-108480000D03*
X107950000Y-104880000D03*
%TD*%
D16*
%TO.C,C34*%
X67310000Y-18520000D03*
X67310000Y-22120000D03*
%TD*%
D10*
%TO.C,C152*%
X210587500Y-100330000D03*
X208512500Y-100330000D03*
%TD*%
%TO.C,C30*%
X48027500Y-91440000D03*
X45952500Y-91440000D03*
%TD*%
D17*
%TO.C,H5*%
X145965000Y-6350000D03*
X146733845Y-4493845D03*
X146733845Y-8206155D03*
X148590000Y-3725000D03*
D18*
X148590000Y-6350000D03*
D17*
X148590000Y-8975000D03*
X150446155Y-4493845D03*
X150446155Y-8206155D03*
X151215000Y-6350000D03*
%TD*%
%TO.C,H3*%
X74845000Y-6350000D03*
X75613845Y-4493845D03*
X75613845Y-8206155D03*
X77470000Y-3725000D03*
D18*
X77470000Y-6350000D03*
D17*
X77470000Y-8975000D03*
X79326155Y-4493845D03*
X79326155Y-8206155D03*
X80095000Y-6350000D03*
%TD*%
D10*
%TO.C,C100*%
X149627500Y-62230000D03*
X147552500Y-62230000D03*
%TD*%
%TO.C,C149*%
X210587500Y-87630000D03*
X208512500Y-87630000D03*
%TD*%
%TO.C,C115*%
X169947500Y-62230000D03*
X167872500Y-62230000D03*
%TD*%
D17*
%TO.C,H9*%
X288205000Y-6350000D03*
X288973845Y-4493845D03*
X288973845Y-8206155D03*
X290830000Y-3725000D03*
D18*
X290830000Y-6350000D03*
D17*
X290830000Y-8975000D03*
X292686155Y-4493845D03*
X292686155Y-8206155D03*
X293455000Y-6350000D03*
%TD*%
D12*
%TO.C,C43*%
X67310000Y-82445000D03*
X67310000Y-78845000D03*
%TD*%
D10*
%TO.C,C181*%
X251227500Y-91440000D03*
X249152500Y-91440000D03*
%TD*%
%TO.C,C65*%
X108987500Y-26670000D03*
X106912500Y-26670000D03*
%TD*%
D16*
%TO.C,C79*%
X128270000Y-18520000D03*
X128270000Y-22120000D03*
%TD*%
D10*
%TO.C,C177*%
X251227500Y-66040000D03*
X249152500Y-66040000D03*
%TD*%
%TO.C,C143*%
X210587500Y-45720000D03*
X208512500Y-45720000D03*
%TD*%
%TO.C,C4*%
X27707500Y-34290000D03*
X25632500Y-34290000D03*
%TD*%
D32*
%TO.C,J1*%
X13335000Y-19050000D03*
D33*
X10795000Y-19050000D03*
X13335000Y-21590000D03*
X10795000Y-21590000D03*
X13335000Y-24130000D03*
X10795000Y-24130000D03*
X13335000Y-26670000D03*
X10795000Y-26670000D03*
X13335000Y-29210000D03*
X10795000Y-29210000D03*
X13335000Y-31750000D03*
X10795000Y-31750000D03*
X13335000Y-34290000D03*
X10795000Y-34290000D03*
X13335000Y-36830000D03*
X10795000Y-36830000D03*
X13335000Y-39370000D03*
X10795000Y-39370000D03*
X13335000Y-41910000D03*
X10795000Y-41910000D03*
X13335000Y-44450000D03*
X10795000Y-44450000D03*
X13335000Y-46990000D03*
X10795000Y-46990000D03*
X13335000Y-49530000D03*
X10795000Y-49530000D03*
X13335000Y-52070000D03*
X10795000Y-52070000D03*
X13335000Y-54610000D03*
X10795000Y-54610000D03*
X13335000Y-57150000D03*
X10795000Y-57150000D03*
X13335000Y-59690000D03*
X10795000Y-59690000D03*
X13335000Y-62230000D03*
X10795000Y-62230000D03*
X13335000Y-64770000D03*
X10795000Y-64770000D03*
X13335000Y-67310000D03*
X10795000Y-67310000D03*
X13335000Y-69850000D03*
X10795000Y-69850000D03*
X13335000Y-72390000D03*
X10795000Y-72390000D03*
X13335000Y-74930000D03*
X10795000Y-74930000D03*
X13335000Y-77470000D03*
X10795000Y-77470000D03*
X13335000Y-80010000D03*
X10795000Y-80010000D03*
X13335000Y-82550000D03*
X10795000Y-82550000D03*
X13335000Y-85090000D03*
X10795000Y-85090000D03*
X13335000Y-87630000D03*
X10795000Y-87630000D03*
X13335000Y-90170000D03*
X10795000Y-90170000D03*
X13335000Y-92710000D03*
X10795000Y-92710000D03*
X13335000Y-95250000D03*
X10795000Y-95250000D03*
X13335000Y-97790000D03*
X10795000Y-97790000D03*
X13335000Y-100330000D03*
X10795000Y-100330000D03*
X13335000Y-102870000D03*
X10795000Y-102870000D03*
X13335000Y-105410000D03*
X10795000Y-105410000D03*
X13335000Y-107950000D03*
X10795000Y-107950000D03*
%TD*%
D10*
%TO.C,C167*%
X230907500Y-100330000D03*
X228832500Y-100330000D03*
%TD*%
D19*
%TO.C,D3*%
X39760000Y-120650000D03*
X44060000Y-120650000D03*
%TD*%
D14*
%TO.C,J4*%
X79781000Y-19050000D03*
X74930000Y-19050000D03*
X79781000Y-21590000D03*
X74930000Y-21590000D03*
X79781000Y-24130000D03*
X74930000Y-24130000D03*
X79781000Y-26670000D03*
X74930000Y-26670000D03*
X79781000Y-29210000D03*
X74930000Y-29210000D03*
X79781000Y-31750000D03*
X74930000Y-31750000D03*
X79781000Y-34290000D03*
X74930000Y-34290000D03*
X79781000Y-36830000D03*
X74930000Y-36830000D03*
X79781000Y-39370000D03*
X74930000Y-39370000D03*
X79781000Y-41910000D03*
X74930000Y-41910000D03*
X79781000Y-44450000D03*
X74930000Y-44450000D03*
X79781000Y-46990000D03*
X74930000Y-46990000D03*
X79781000Y-49530000D03*
X74930000Y-49530000D03*
X79781000Y-52070000D03*
X74930000Y-52070000D03*
X79781000Y-54610000D03*
X74930000Y-54610000D03*
X79781000Y-57150000D03*
X74930000Y-57150000D03*
X79781000Y-59690000D03*
X74930000Y-59690000D03*
X79781000Y-62230000D03*
X74930000Y-62230000D03*
X79781000Y-64770000D03*
X74930000Y-64770000D03*
X79781000Y-67310000D03*
X74930000Y-67310000D03*
X79781000Y-69850000D03*
X74930000Y-69850000D03*
X79781000Y-72390000D03*
X74930000Y-72390000D03*
X79781000Y-74930000D03*
X74930000Y-74930000D03*
X79781000Y-77470000D03*
X74930000Y-77470000D03*
X79781000Y-80010000D03*
X74930000Y-80010000D03*
X79781000Y-82550000D03*
X74930000Y-82550000D03*
X79781000Y-85090000D03*
X74930000Y-85090000D03*
X79781000Y-87630000D03*
X74930000Y-87630000D03*
X79781000Y-90170000D03*
X74930000Y-90170000D03*
X79781000Y-92710000D03*
X74930000Y-92710000D03*
X79781000Y-95250000D03*
X74930000Y-95250000D03*
X79781000Y-97790000D03*
X74930000Y-97790000D03*
X79781000Y-100330000D03*
X74930000Y-100330000D03*
X79781000Y-102870000D03*
X74930000Y-102870000D03*
X79781000Y-105410000D03*
X74930000Y-105410000D03*
X79781000Y-107950000D03*
X74930000Y-107950000D03*
%TD*%
D16*
%TO.C,C139*%
X209550000Y-18520000D03*
X209550000Y-22120000D03*
%TD*%
D10*
%TO.C,C62*%
X88667500Y-100330000D03*
X86592500Y-100330000D03*
%TD*%
D14*
%TO.C,J8*%
X161061000Y-19050000D03*
X156210000Y-19050000D03*
X161061000Y-21590000D03*
X156210000Y-21590000D03*
X161061000Y-24130000D03*
X156210000Y-24130000D03*
X161061000Y-26670000D03*
X156210000Y-26670000D03*
X161061000Y-29210000D03*
X156210000Y-29210000D03*
X161061000Y-31750000D03*
X156210000Y-31750000D03*
X161061000Y-34290000D03*
X156210000Y-34290000D03*
X161061000Y-36830000D03*
X156210000Y-36830000D03*
X161061000Y-39370000D03*
X156210000Y-39370000D03*
X161061000Y-41910000D03*
X156210000Y-41910000D03*
X161061000Y-44450000D03*
X156210000Y-44450000D03*
X161061000Y-46990000D03*
X156210000Y-46990000D03*
X161061000Y-49530000D03*
X156210000Y-49530000D03*
X161061000Y-52070000D03*
X156210000Y-52070000D03*
X161061000Y-54610000D03*
X156210000Y-54610000D03*
X161061000Y-57150000D03*
X156210000Y-57150000D03*
X161061000Y-59690000D03*
X156210000Y-59690000D03*
X161061000Y-62230000D03*
X156210000Y-62230000D03*
X161061000Y-64770000D03*
X156210000Y-64770000D03*
X161061000Y-67310000D03*
X156210000Y-67310000D03*
X161061000Y-69850000D03*
X156210000Y-69850000D03*
X161061000Y-72390000D03*
X156210000Y-72390000D03*
X161061000Y-74930000D03*
X156210000Y-74930000D03*
X161061000Y-77470000D03*
X156210000Y-77470000D03*
X161061000Y-80010000D03*
X156210000Y-80010000D03*
X161061000Y-82550000D03*
X156210000Y-82550000D03*
X161061000Y-85090000D03*
X156210000Y-85090000D03*
X161061000Y-87630000D03*
X156210000Y-87630000D03*
X161061000Y-90170000D03*
X156210000Y-90170000D03*
X161061000Y-92710000D03*
X156210000Y-92710000D03*
X161061000Y-95250000D03*
X156210000Y-95250000D03*
X161061000Y-97790000D03*
X156210000Y-97790000D03*
X161061000Y-100330000D03*
X156210000Y-100330000D03*
X161061000Y-102870000D03*
X156210000Y-102870000D03*
X161061000Y-105410000D03*
X156210000Y-105410000D03*
X161061000Y-107950000D03*
X156210000Y-107950000D03*
%TD*%
D12*
%TO.C,C138*%
X189230000Y-108480000D03*
X189230000Y-104880000D03*
%TD*%
%TO.C,C39*%
X67310000Y-53870000D03*
X67310000Y-50270000D03*
%TD*%
D10*
%TO.C,C174*%
X251227500Y-45720000D03*
X249152500Y-45720000D03*
%TD*%
%TO.C,C60*%
X88667500Y-91440000D03*
X86592500Y-91440000D03*
%TD*%
D14*
%TO.C,J12*%
X242341000Y-19050000D03*
X237490000Y-19050000D03*
X242341000Y-21590000D03*
X237490000Y-21590000D03*
X242341000Y-24130000D03*
X237490000Y-24130000D03*
X242341000Y-26670000D03*
X237490000Y-26670000D03*
X242341000Y-29210000D03*
X237490000Y-29210000D03*
X242341000Y-31750000D03*
X237490000Y-31750000D03*
X242341000Y-34290000D03*
X237490000Y-34290000D03*
X242341000Y-36830000D03*
X237490000Y-36830000D03*
X242341000Y-39370000D03*
X237490000Y-39370000D03*
X242341000Y-41910000D03*
X237490000Y-41910000D03*
X242341000Y-44450000D03*
X237490000Y-44450000D03*
X242341000Y-46990000D03*
X237490000Y-46990000D03*
X242341000Y-49530000D03*
X237490000Y-49530000D03*
X242341000Y-52070000D03*
X237490000Y-52070000D03*
X242341000Y-54610000D03*
X237490000Y-54610000D03*
X242341000Y-57150000D03*
X237490000Y-57150000D03*
X242341000Y-59690000D03*
X237490000Y-59690000D03*
X242341000Y-62230000D03*
X237490000Y-62230000D03*
X242341000Y-64770000D03*
X237490000Y-64770000D03*
X242341000Y-67310000D03*
X237490000Y-67310000D03*
X242341000Y-69850000D03*
X237490000Y-69850000D03*
X242341000Y-72390000D03*
X237490000Y-72390000D03*
X242341000Y-74930000D03*
X237490000Y-74930000D03*
X242341000Y-77470000D03*
X237490000Y-77470000D03*
X242341000Y-80010000D03*
X237490000Y-80010000D03*
X242341000Y-82550000D03*
X237490000Y-82550000D03*
X242341000Y-85090000D03*
X237490000Y-85090000D03*
X242341000Y-87630000D03*
X237490000Y-87630000D03*
X242341000Y-90170000D03*
X237490000Y-90170000D03*
X242341000Y-92710000D03*
X237490000Y-92710000D03*
X242341000Y-95250000D03*
X237490000Y-95250000D03*
X242341000Y-97790000D03*
X237490000Y-97790000D03*
X242341000Y-100330000D03*
X237490000Y-100330000D03*
X242341000Y-102870000D03*
X237490000Y-102870000D03*
X242341000Y-105410000D03*
X237490000Y-105410000D03*
X242341000Y-107950000D03*
X237490000Y-107950000D03*
%TD*%
D10*
%TO.C,C44*%
X68347500Y-87630000D03*
X66272500Y-87630000D03*
%TD*%
%TO.C,C83*%
X129307500Y-45720000D03*
X127232500Y-45720000D03*
%TD*%
%TO.C,C172*%
X251227500Y-30480000D03*
X249152500Y-30480000D03*
%TD*%
%TO.C,C106*%
X149627500Y-96520000D03*
X147552500Y-96520000D03*
%TD*%
%TO.C,C15*%
X27707500Y-92710000D03*
X25632500Y-92710000D03*
%TD*%
%TO.C,C25*%
X48027500Y-62230000D03*
X45952500Y-62230000D03*
%TD*%
D12*
%TO.C,C132*%
X189230000Y-74190000D03*
X189230000Y-70590000D03*
%TD*%
D10*
%TO.C,C9*%
X27707500Y-58420000D03*
X25632500Y-58420000D03*
%TD*%
D12*
%TO.C,C103*%
X148590000Y-82445000D03*
X148590000Y-78845000D03*
%TD*%
%TO.C,C72*%
X107950000Y-74190000D03*
X107950000Y-70590000D03*
%TD*%
D10*
%TO.C,C164*%
X230907500Y-87630000D03*
X228832500Y-87630000D03*
%TD*%
D13*
%TO.C,C195*%
X273050000Y-9927500D03*
X273050000Y-7852500D03*
%TD*%
D12*
%TO.C,C42*%
X67310000Y-74190000D03*
X67310000Y-70590000D03*
%TD*%
D10*
%TO.C,C6*%
X27707500Y-41910000D03*
X25632500Y-41910000D03*
%TD*%
D12*
%TO.C,C148*%
X209550000Y-82445000D03*
X209550000Y-78845000D03*
%TD*%
D13*
%TO.C,C191*%
X269240000Y-121052500D03*
X269240000Y-118977500D03*
%TD*%
D20*
%TO.C,C169*%
X230505000Y-119042500D03*
X230505000Y-121117500D03*
%TD*%
D12*
%TO.C,C88*%
X128270000Y-82445000D03*
X128270000Y-78845000D03*
%TD*%
%TO.C,C54*%
X87630000Y-53870000D03*
X87630000Y-50270000D03*
%TD*%
%TO.C,C87*%
X128270000Y-74190000D03*
X128270000Y-70590000D03*
%TD*%
D10*
%TO.C,C136*%
X190267500Y-96520000D03*
X188192500Y-96520000D03*
%TD*%
%TO.C,C74*%
X108987500Y-87630000D03*
X106912500Y-87630000D03*
%TD*%
D12*
%TO.C,C175*%
X250190000Y-53870000D03*
X250190000Y-50270000D03*
%TD*%
D10*
%TO.C,C180*%
X251227500Y-87630000D03*
X249152500Y-87630000D03*
%TD*%
D11*
%TO.C,R6*%
X274320000Y-119015000D03*
X274320000Y-121015000D03*
%TD*%
D12*
%TO.C,C159*%
X229870000Y-53870000D03*
X229870000Y-50270000D03*
%TD*%
D10*
%TO.C,C55*%
X88667500Y-62230000D03*
X86592500Y-62230000D03*
%TD*%
D12*
%TO.C,C163*%
X229870000Y-82445000D03*
X229870000Y-78845000D03*
%TD*%
D20*
%TO.C,C202*%
X280035000Y-88730000D03*
X280035000Y-90805000D03*
%TD*%
D10*
%TO.C,C51*%
X88667500Y-30480000D03*
X86592500Y-30480000D03*
%TD*%
D16*
%TO.C,C170*%
X250190000Y-18520000D03*
X250190000Y-22120000D03*
%TD*%
D12*
%TO.C,C8*%
X26670000Y-53870000D03*
X26670000Y-50270000D03*
%TD*%
D28*
%TO.C,C190*%
X273050000Y-88425000D03*
X273050000Y-83025000D03*
%TD*%
D10*
%TO.C,C171*%
X251227500Y-26670000D03*
X249152500Y-26670000D03*
%TD*%
%TO.C,C98*%
X149627500Y-45720000D03*
X147552500Y-45720000D03*
%TD*%
%TO.C,C85*%
X129307500Y-62230000D03*
X127232500Y-62230000D03*
%TD*%
%TO.C,C176*%
X251227500Y-62230000D03*
X249152500Y-62230000D03*
%TD*%
%TO.C,C7*%
X27707500Y-45720000D03*
X25632500Y-45720000D03*
%TD*%
%TO.C,C67*%
X108987500Y-41910000D03*
X106912500Y-41910000D03*
%TD*%
D34*
%TO.C,R7*%
X276860000Y-121015000D03*
X276860000Y-119015000D03*
%TD*%
D17*
%TO.C,H1*%
X3725000Y-6350000D03*
X4493845Y-4493845D03*
X4493845Y-8206155D03*
X6350000Y-3725000D03*
D18*
X6350000Y-6350000D03*
D17*
X6350000Y-8975000D03*
X8206155Y-4493845D03*
X8206155Y-8206155D03*
X8975000Y-6350000D03*
%TD*%
D12*
%TO.C,C129*%
X189230000Y-53870000D03*
X189230000Y-50270000D03*
%TD*%
D10*
%TO.C,C112*%
X169947500Y-41910000D03*
X167872500Y-41910000D03*
%TD*%
%TO.C,C91*%
X129307500Y-96520000D03*
X127232500Y-96520000D03*
%TD*%
%TO.C,C3*%
X27707500Y-30480000D03*
X25632500Y-30480000D03*
%TD*%
%TO.C,C82*%
X129307500Y-41910000D03*
X127232500Y-41910000D03*
%TD*%
D12*
%TO.C,C153*%
X209550000Y-108480000D03*
X209550000Y-104880000D03*
%TD*%
D16*
%TO.C,C1*%
X26670000Y-18520000D03*
X26670000Y-22120000D03*
%TD*%
D11*
%TO.C,R5*%
X271780000Y-119015000D03*
X271780000Y-121015000D03*
%TD*%
D10*
%TO.C,C86*%
X129307500Y-66040000D03*
X127232500Y-66040000D03*
%TD*%
D35*
%TO.C,D5*%
X61840000Y-120650000D03*
X57540000Y-120650000D03*
%TD*%
D10*
%TO.C,C70*%
X108987500Y-62230000D03*
X106912500Y-62230000D03*
%TD*%
%TO.C,C81*%
X129307500Y-30480000D03*
X127232500Y-30480000D03*
%TD*%
D12*
%TO.C,C108*%
X148590000Y-108480000D03*
X148590000Y-104880000D03*
%TD*%
%TO.C,C28*%
X46990000Y-83080000D03*
X46990000Y-79480000D03*
%TD*%
D36*
%TO.C,R4*%
X204200000Y-114935000D03*
X202200000Y-114935000D03*
%TD*%
D19*
%TO.C,D1*%
X21980000Y-120650000D03*
X26280000Y-120650000D03*
%TD*%
D17*
%TO.C,H4*%
X74845000Y-120650000D03*
X75613845Y-118793845D03*
X75613845Y-122506155D03*
X77470000Y-118025000D03*
D18*
X77470000Y-120650000D03*
D17*
X77470000Y-123275000D03*
X79326155Y-118793845D03*
X79326155Y-122506155D03*
X80095000Y-120650000D03*
%TD*%
D12*
%TO.C,C118*%
X168910000Y-82445000D03*
X168910000Y-78845000D03*
%TD*%
D10*
%TO.C,C56*%
X88667500Y-66040000D03*
X86592500Y-66040000D03*
%TD*%
D17*
%TO.C,H6*%
X145965000Y-120650000D03*
X146733845Y-118793845D03*
X146733845Y-122506155D03*
X148590000Y-118025000D03*
D18*
X148590000Y-120650000D03*
D17*
X148590000Y-123275000D03*
X150446155Y-118793845D03*
X150446155Y-122506155D03*
X151215000Y-120650000D03*
%TD*%
D10*
%TO.C,C111*%
X169947500Y-30480000D03*
X167872500Y-30480000D03*
%TD*%
%TO.C,C146*%
X210587500Y-66040000D03*
X208512500Y-66040000D03*
%TD*%
D16*
%TO.C,C109*%
X168910000Y-18520000D03*
X168910000Y-22120000D03*
%TD*%
D10*
%TO.C,C173*%
X251227500Y-41910000D03*
X249152500Y-41910000D03*
%TD*%
D20*
%TO.C,C186*%
X250825000Y-119042500D03*
X250825000Y-121117500D03*
%TD*%
D10*
%TO.C,C10*%
X27707500Y-62230000D03*
X25632500Y-62230000D03*
%TD*%
D15*
%TO.C,R3*%
X189500000Y-114935000D03*
X191500000Y-114935000D03*
%TD*%
D12*
%TO.C,C69*%
X107820000Y-53870000D03*
X107820000Y-50270000D03*
%TD*%
D10*
%TO.C,C32*%
X48027500Y-100330000D03*
X45952500Y-100330000D03*
%TD*%
D12*
%TO.C,C93*%
X128270000Y-108480000D03*
X128270000Y-104880000D03*
%TD*%
D10*
%TO.C,C116*%
X169947500Y-66040000D03*
X167872500Y-66040000D03*
%TD*%
D12*
%TO.C,C57*%
X87630000Y-74190000D03*
X87630000Y-70590000D03*
%TD*%
D17*
%TO.C,H7*%
X217085000Y-6350000D03*
X217853845Y-4493845D03*
X217853845Y-8206155D03*
X219710000Y-3725000D03*
D18*
X219710000Y-6350000D03*
D17*
X219710000Y-8975000D03*
X221566155Y-4493845D03*
X221566155Y-8206155D03*
X222335000Y-6350000D03*
%TD*%
D28*
%TO.C,C189*%
X273050000Y-69375000D03*
X273050000Y-63975000D03*
%TD*%
D10*
%TO.C,C52*%
X88667500Y-41910000D03*
X86592500Y-41910000D03*
%TD*%
M02*
