M48
INCH
T1C0.0157
T2C0.0197
T3C0.0197
T4C0.0394
T5C0.0430
T6C0.0512
T7C0.0551
T8C0.1378
%
G90
G05
T1
X0.05Y-0.05
X0.05Y-0.25
X0.05Y-0.5
X0.05Y-0.75
X0.05Y-1.0
X0.05Y-1.25
X0.05Y-1.5
X0.05Y-1.75
X0.05Y-2.0
X0.05Y-2.25
X0.05Y-2.5
X0.05Y-2.75
X0.05Y-3.0
X0.05Y-3.25
X0.05Y-3.5
X0.05Y-3.75
X0.05Y-4.0
X0.05Y-4.25
X0.05Y-4.5
X0.05Y-4.75
X0.05Y-4.95
X0.25Y-0.05
X0.25Y-4.95
X0.5Y-0.05
X0.5Y-4.95
X0.75Y-0.05
X0.75Y-4.95
X1.0Y-0.05
X1.0Y-4.95
X1.25Y-0.05
X1.25Y-4.95
X1.5Y-0.05
X1.5Y-4.95
X1.75Y-0.05
X1.75Y-4.95
X2.0Y-0.05
X2.0Y-4.95
X2.25Y-0.05
X2.25Y-4.95
X2.5Y-0.05
X2.5Y-4.95
X2.75Y-0.05
X2.75Y-4.95
X3.0Y-0.05
X3.0Y-4.95
X3.25Y-0.05
X3.25Y-4.95
X3.5Y-0.05
X3.5Y-4.95
X3.75Y-0.05
X3.75Y-4.95
X4.0Y-0.05
X4.0Y-4.95
X4.25Y-0.05
X4.25Y-4.95
X4.5Y-0.05
X4.5Y-4.95
X4.75Y-0.05
X4.75Y-4.95
X5.0Y-0.05
X5.0Y-4.95
X5.25Y-0.05
X5.25Y-4.95
X5.5Y-0.05
X5.5Y-4.95
X5.75Y-0.05
X5.75Y-4.95
X6.0Y-0.05
X6.0Y-4.95
X6.25Y-0.05
X6.25Y-4.95
X6.5Y-0.05
X6.5Y-4.95
X6.75Y-0.05
X6.75Y-4.95
X7.0Y-0.05
X7.0Y-4.95
X7.25Y-0.05
X7.25Y-4.95
X7.5Y-0.05
X7.5Y-4.95
X7.75Y-0.05
X7.75Y-4.95
X8.0Y-0.05
X8.0Y-4.95
X8.25Y-0.05
X8.25Y-4.95
X8.5Y-0.05
X8.5Y-4.95
X8.75Y-0.05
X8.75Y-4.95
X9.0Y-0.05
X9.0Y-4.95
X9.2Y-4.725
X9.25Y-0.05
X9.25Y-4.95
X9.4125Y-4.7625
X9.5Y-0.05
X9.5Y-4.95
X9.75Y-0.05
X9.75Y-4.95
X10.0Y-0.05
X10.0Y-4.95
X10.025Y-4.725
X10.25Y-0.05
X10.25Y-4.95
X10.425Y-4.8
X10.5Y-0.05
X10.5Y-4.95
X10.575Y-4.35
X10.75Y-0.05
X10.75Y-4.95
X11.0Y-0.05
X11.0Y-4.95
X11.1Y-4.725
X11.25Y-0.05
X11.25Y-4.95
X11.5Y-0.05
X11.5Y-4.95
X11.65Y-0.05
X11.65Y-0.25
X11.65Y-0.5
X11.65Y-0.75
X11.65Y-1.0
X11.65Y-1.25
X11.65Y-1.5
X11.65Y-1.75
X11.65Y-2.0
X11.65Y-2.25
X11.65Y-2.5
X11.65Y-2.75
X11.65Y-3.0
X11.65Y-3.25
X11.65Y-3.5
X11.65Y-3.75
X11.65Y-4.0
X11.65Y-4.25
X11.65Y-4.5
X11.65Y-4.75
X11.65Y-4.95
T2
X0.7Y-4.625
X0.7Y-4.75
X0.7Y-4.875
X0.925Y-0.125
X0.925Y-0.25
X0.925Y-0.375
X1.2Y-4.625
X1.2Y-4.75
X1.2Y-4.875
X1.425Y-0.125
X1.425Y-0.25
X1.425Y-0.375
X1.9Y-4.625
X1.9Y-4.75
X1.9Y-4.875
X2.375Y-0.125
X2.375Y-0.25
X2.375Y-0.375
X2.6Y-4.625
X2.6Y-4.75
X2.6Y-4.875
X10.75Y-2.9
X10.75Y-3.65
X10.925Y-2.95
X10.95Y-1.35
X10.95Y-1.85
T3
X0.1467Y-0.25
X0.1467Y-4.75
X0.1769Y-0.1769
X0.1769Y-0.3231
X0.1769Y-4.6769
X0.1769Y-4.8231
X0.25Y-0.1467
X0.25Y-0.3533
X0.25Y-4.6467
X0.25Y-4.8533
X0.3231Y-0.1769
X0.3231Y-0.3231
X0.3231Y-4.6769
X0.3231Y-4.8231
X0.3533Y-0.25
X0.3533Y-4.75
X2.9467Y-0.25
X2.9467Y-4.75
X2.9769Y-0.1769
X2.9769Y-0.3231
X2.9769Y-4.6769
X2.9769Y-4.8231
X3.05Y-0.1467
X3.05Y-0.3533
X3.05Y-4.6467
X3.05Y-4.8533
X3.1231Y-0.1769
X3.1231Y-0.3231
X3.1231Y-4.6769
X3.1231Y-4.8231
X3.1533Y-0.25
X3.1533Y-4.75
X5.7467Y-0.25
X5.7467Y-4.75
X5.7769Y-0.1769
X5.7769Y-0.3231
X5.7769Y-4.6769
X5.7769Y-4.8231
X5.85Y-0.1467
X5.85Y-0.3533
X5.85Y-4.6467
X5.85Y-4.8533
X5.9231Y-0.1769
X5.9231Y-0.3231
X5.9231Y-4.6769
X5.9231Y-4.8231
X5.9533Y-0.25
X5.9533Y-4.75
X8.5467Y-0.25
X8.5467Y-4.75
X8.5769Y-0.1769
X8.5769Y-0.3231
X8.5769Y-4.6769
X8.5769Y-4.8231
X8.65Y-0.1467
X8.65Y-0.3533
X8.65Y-4.6467
X8.65Y-4.8533
X8.7231Y-0.1769
X8.7231Y-0.3231
X8.7231Y-4.6769
X8.7231Y-4.8231
X8.7533Y-0.25
X8.7533Y-4.75
X11.3467Y-0.25
X11.3467Y-4.75
X11.3769Y-0.1769
X11.3769Y-0.3231
X11.3769Y-4.6769
X11.3769Y-4.8231
X11.45Y-0.1467
X11.45Y-0.3533
X11.45Y-4.6467
X11.45Y-4.8533
X11.5231Y-0.1769
X11.5231Y-0.3231
X11.5231Y-4.6769
X11.5231Y-4.8231
X11.5533Y-0.25
X11.5533Y-4.75
T4
X0.425Y-0.75
X0.425Y-0.85
X0.425Y-0.95
X0.425Y-1.05
X0.425Y-1.15
X0.425Y-1.25
X0.425Y-1.35
X0.425Y-1.45
X0.425Y-1.55
X0.425Y-1.65
X0.425Y-1.75
X0.425Y-1.85
X0.425Y-1.95
X0.425Y-2.05
X0.425Y-2.15
X0.425Y-2.25
X0.425Y-2.35
X0.425Y-2.45
X0.425Y-2.55
X0.425Y-2.65
X0.425Y-2.75
X0.425Y-2.85
X0.425Y-2.95
X0.425Y-3.05
X0.425Y-3.15
X0.425Y-3.25
X0.425Y-3.35
X0.425Y-3.45
X0.425Y-3.55
X0.425Y-3.65
X0.425Y-3.75
X0.425Y-3.85
X0.425Y-3.95
X0.425Y-4.05
X0.425Y-4.15
X0.425Y-4.25
X0.525Y-0.75
X0.525Y-0.85
X0.525Y-0.95
X0.525Y-1.05
X0.525Y-1.15
X0.525Y-1.25
X0.525Y-1.35
X0.525Y-1.45
X0.525Y-1.55
X0.525Y-1.65
X0.525Y-1.75
X0.525Y-1.85
X0.525Y-1.95
X0.525Y-2.05
X0.525Y-2.15
X0.525Y-2.25
X0.525Y-2.35
X0.525Y-2.45
X0.525Y-2.55
X0.525Y-2.65
X0.525Y-2.75
X0.525Y-2.85
X0.525Y-2.95
X0.525Y-3.05
X0.525Y-3.15
X0.525Y-3.25
X0.525Y-3.35
X0.525Y-3.45
X0.525Y-3.55
X0.525Y-3.65
X0.525Y-3.75
X0.525Y-3.85
X0.525Y-3.95
X0.525Y-4.05
X0.525Y-4.15
X0.525Y-4.25
T5
X1.35Y-0.75
X1.35Y-0.85
X1.35Y-0.95
X1.35Y-1.05
X1.35Y-1.15
X1.35Y-1.25
X1.35Y-1.35
X1.35Y-1.45
X1.35Y-1.55
X1.35Y-1.65
X1.35Y-1.75
X1.35Y-1.85
X1.35Y-1.95
X1.35Y-2.05
X1.35Y-2.15
X1.35Y-2.25
X1.35Y-2.35
X1.35Y-2.45
X1.35Y-2.55
X1.35Y-2.65
X1.35Y-2.75
X1.35Y-2.85
X1.35Y-2.95
X1.35Y-3.05
X1.35Y-3.15
X1.35Y-3.25
X1.35Y-3.35
X1.35Y-3.45
X1.35Y-3.55
X1.35Y-3.65
X1.35Y-3.75
X1.35Y-3.85
X1.35Y-3.95
X1.35Y-4.05
X1.35Y-4.15
X1.35Y-4.25
X1.541Y-0.75
X1.541Y-0.85
X1.541Y-0.95
X1.541Y-1.05
X1.541Y-1.15
X1.541Y-1.25
X1.541Y-1.35
X1.541Y-1.45
X1.541Y-1.55
X1.541Y-1.65
X1.541Y-1.75
X1.541Y-1.85
X1.541Y-1.95
X1.541Y-2.05
X1.541Y-2.15
X1.541Y-2.25
X1.541Y-2.35
X1.541Y-2.45
X1.541Y-2.55
X1.541Y-2.65
X1.541Y-2.75
X1.541Y-2.85
X1.541Y-2.95
X1.541Y-3.05
X1.541Y-3.15
X1.541Y-3.25
X1.541Y-3.35
X1.541Y-3.45
X1.541Y-3.55
X1.541Y-3.65
X1.541Y-3.75
X1.541Y-3.85
X1.541Y-3.95
X1.541Y-4.05
X1.541Y-4.15
X1.541Y-4.25
X2.15Y-0.75
X2.15Y-0.85
X2.15Y-0.95
X2.15Y-1.05
X2.15Y-1.15
X2.15Y-1.25
X2.15Y-1.35
X2.15Y-1.45
X2.15Y-1.55
X2.15Y-1.65
X2.15Y-1.75
X2.15Y-1.85
X2.15Y-1.95
X2.15Y-2.05
X2.15Y-2.15
X2.15Y-2.25
X2.15Y-2.35
X2.15Y-2.45
X2.15Y-2.55
X2.15Y-2.65
X2.15Y-2.75
X2.15Y-2.85
X2.15Y-2.95
X2.15Y-3.05
X2.15Y-3.15
X2.15Y-3.25
X2.15Y-3.35
X2.15Y-3.45
X2.15Y-3.55
X2.15Y-3.65
X2.15Y-3.75
X2.15Y-3.85
X2.15Y-3.95
X2.15Y-4.05
X2.15Y-4.15
X2.15Y-4.25
X2.341Y-0.75
X2.341Y-0.85
X2.341Y-0.95
X2.341Y-1.05
X2.341Y-1.15
X2.341Y-1.25
X2.341Y-1.35
X2.341Y-1.45
X2.341Y-1.55
X2.341Y-1.65
X2.341Y-1.75
X2.341Y-1.85
X2.341Y-1.95
X2.341Y-2.05
X2.341Y-2.15
X2.341Y-2.25
X2.341Y-2.35
X2.341Y-2.45
X2.341Y-2.55
X2.341Y-2.65
X2.341Y-2.75
X2.341Y-2.85
X2.341Y-2.95
X2.341Y-3.05
X2.341Y-3.15
X2.341Y-3.25
X2.341Y-3.35
X2.341Y-3.45
X2.341Y-3.55
X2.341Y-3.65
X2.341Y-3.75
X2.341Y-3.85
X2.341Y-3.95
X2.341Y-4.05
X2.341Y-4.15
X2.341Y-4.25
X2.95Y-0.75
X2.95Y-0.85
X2.95Y-0.95
X2.95Y-1.05
X2.95Y-1.15
X2.95Y-1.25
X2.95Y-1.35
X2.95Y-1.45
X2.95Y-1.55
X2.95Y-1.65
X2.95Y-1.75
X2.95Y-1.85
X2.95Y-1.95
X2.95Y-2.05
X2.95Y-2.15
X2.95Y-2.25
X2.95Y-2.35
X2.95Y-2.45
X2.95Y-2.55
X2.95Y-2.65
X2.95Y-2.75
X2.95Y-2.85
X2.95Y-2.95
X2.95Y-3.05
X2.95Y-3.15
X2.95Y-3.25
X2.95Y-3.35
X2.95Y-3.45
X2.95Y-3.55
X2.95Y-3.65
X2.95Y-3.75
X2.95Y-3.85
X2.95Y-3.95
X2.95Y-4.05
X2.95Y-4.15
X2.95Y-4.25
X3.141Y-0.75
X3.141Y-0.85
X3.141Y-0.95
X3.141Y-1.05
X3.141Y-1.15
X3.141Y-1.25
X3.141Y-1.35
X3.141Y-1.45
X3.141Y-1.55
X3.141Y-1.65
X3.141Y-1.75
X3.141Y-1.85
X3.141Y-1.95
X3.141Y-2.05
X3.141Y-2.15
X3.141Y-2.25
X3.141Y-2.35
X3.141Y-2.45
X3.141Y-2.55
X3.141Y-2.65
X3.141Y-2.75
X3.141Y-2.85
X3.141Y-2.95
X3.141Y-3.05
X3.141Y-3.15
X3.141Y-3.25
X3.141Y-3.35
X3.141Y-3.45
X3.141Y-3.55
X3.141Y-3.65
X3.141Y-3.75
X3.141Y-3.85
X3.141Y-3.95
X3.141Y-4.05
X3.141Y-4.15
X3.141Y-4.25
X3.75Y-0.75
X3.75Y-0.85
X3.75Y-0.95
X3.75Y-1.05
X3.75Y-1.15
X3.75Y-1.25
X3.75Y-1.35
X3.75Y-1.45
X3.75Y-1.55
X3.75Y-1.65
X3.75Y-1.75
X3.75Y-1.85
X3.75Y-1.95
X3.75Y-2.05
X3.75Y-2.15
X3.75Y-2.25
X3.75Y-2.35
X3.75Y-2.45
X3.75Y-2.55
X3.75Y-2.65
X3.75Y-2.75
X3.75Y-2.85
X3.75Y-2.95
X3.75Y-3.05
X3.75Y-3.15
X3.75Y-3.25
X3.75Y-3.35
X3.75Y-3.45
X3.75Y-3.55
X3.75Y-3.65
X3.75Y-3.75
X3.75Y-3.85
X3.75Y-3.95
X3.75Y-4.05
X3.75Y-4.15
X3.75Y-4.25
X3.941Y-0.75
X3.941Y-0.85
X3.941Y-0.95
X3.941Y-1.05
X3.941Y-1.15
X3.941Y-1.25
X3.941Y-1.35
X3.941Y-1.45
X3.941Y-1.55
X3.941Y-1.65
X3.941Y-1.75
X3.941Y-1.85
X3.941Y-1.95
X3.941Y-2.05
X3.941Y-2.15
X3.941Y-2.25
X3.941Y-2.35
X3.941Y-2.45
X3.941Y-2.55
X3.941Y-2.65
X3.941Y-2.75
X3.941Y-2.85
X3.941Y-2.95
X3.941Y-3.05
X3.941Y-3.15
X3.941Y-3.25
X3.941Y-3.35
X3.941Y-3.45
X3.941Y-3.55
X3.941Y-3.65
X3.941Y-3.75
X3.941Y-3.85
X3.941Y-3.95
X3.941Y-4.05
X3.941Y-4.15
X3.941Y-4.25
X4.55Y-0.75
X4.55Y-0.85
X4.55Y-0.95
X4.55Y-1.05
X4.55Y-1.15
X4.55Y-1.25
X4.55Y-1.35
X4.55Y-1.45
X4.55Y-1.55
X4.55Y-1.65
X4.55Y-1.75
X4.55Y-1.85
X4.55Y-1.95
X4.55Y-2.05
X4.55Y-2.15
X4.55Y-2.25
X4.55Y-2.35
X4.55Y-2.45
X4.55Y-2.55
X4.55Y-2.65
X4.55Y-2.75
X4.55Y-2.85
X4.55Y-2.95
X4.55Y-3.05
X4.55Y-3.15
X4.55Y-3.25
X4.55Y-3.35
X4.55Y-3.45
X4.55Y-3.55
X4.55Y-3.65
X4.55Y-3.75
X4.55Y-3.85
X4.55Y-3.95
X4.55Y-4.05
X4.55Y-4.15
X4.55Y-4.25
X4.741Y-0.75
X4.741Y-0.85
X4.741Y-0.95
X4.741Y-1.05
X4.741Y-1.15
X4.741Y-1.25
X4.741Y-1.35
X4.741Y-1.45
X4.741Y-1.55
X4.741Y-1.65
X4.741Y-1.75
X4.741Y-1.85
X4.741Y-1.95
X4.741Y-2.05
X4.741Y-2.15
X4.741Y-2.25
X4.741Y-2.35
X4.741Y-2.45
X4.741Y-2.55
X4.741Y-2.65
X4.741Y-2.75
X4.741Y-2.85
X4.741Y-2.95
X4.741Y-3.05
X4.741Y-3.15
X4.741Y-3.25
X4.741Y-3.35
X4.741Y-3.45
X4.741Y-3.55
X4.741Y-3.65
X4.741Y-3.75
X4.741Y-3.85
X4.741Y-3.95
X4.741Y-4.05
X4.741Y-4.15
X4.741Y-4.25
X5.35Y-0.75
X5.35Y-0.85
X5.35Y-0.95
X5.35Y-1.05
X5.35Y-1.15
X5.35Y-1.25
X5.35Y-1.35
X5.35Y-1.45
X5.35Y-1.55
X5.35Y-1.65
X5.35Y-1.75
X5.35Y-1.85
X5.35Y-1.95
X5.35Y-2.05
X5.35Y-2.15
X5.35Y-2.25
X5.35Y-2.35
X5.35Y-2.45
X5.35Y-2.55
X5.35Y-2.65
X5.35Y-2.75
X5.35Y-2.85
X5.35Y-2.95
X5.35Y-3.05
X5.35Y-3.15
X5.35Y-3.25
X5.35Y-3.35
X5.35Y-3.45
X5.35Y-3.55
X5.35Y-3.65
X5.35Y-3.75
X5.35Y-3.85
X5.35Y-3.95
X5.35Y-4.05
X5.35Y-4.15
X5.35Y-4.25
X5.541Y-0.75
X5.541Y-0.85
X5.541Y-0.95
X5.541Y-1.05
X5.541Y-1.15
X5.541Y-1.25
X5.541Y-1.35
X5.541Y-1.45
X5.541Y-1.55
X5.541Y-1.65
X5.541Y-1.75
X5.541Y-1.85
X5.541Y-1.95
X5.541Y-2.05
X5.541Y-2.15
X5.541Y-2.25
X5.541Y-2.35
X5.541Y-2.45
X5.541Y-2.55
X5.541Y-2.65
X5.541Y-2.75
X5.541Y-2.85
X5.541Y-2.95
X5.541Y-3.05
X5.541Y-3.15
X5.541Y-3.25
X5.541Y-3.35
X5.541Y-3.45
X5.541Y-3.55
X5.541Y-3.65
X5.541Y-3.75
X5.541Y-3.85
X5.541Y-3.95
X5.541Y-4.05
X5.541Y-4.15
X5.541Y-4.25
X6.15Y-0.75
X6.15Y-0.85
X6.15Y-0.95
X6.15Y-1.05
X6.15Y-1.15
X6.15Y-1.25
X6.15Y-1.35
X6.15Y-1.45
X6.15Y-1.55
X6.15Y-1.65
X6.15Y-1.75
X6.15Y-1.85
X6.15Y-1.95
X6.15Y-2.05
X6.15Y-2.15
X6.15Y-2.25
X6.15Y-2.35
X6.15Y-2.45
X6.15Y-2.55
X6.15Y-2.65
X6.15Y-2.75
X6.15Y-2.85
X6.15Y-2.95
X6.15Y-3.05
X6.15Y-3.15
X6.15Y-3.25
X6.15Y-3.35
X6.15Y-3.45
X6.15Y-3.55
X6.15Y-3.65
X6.15Y-3.75
X6.15Y-3.85
X6.15Y-3.95
X6.15Y-4.05
X6.15Y-4.15
X6.15Y-4.25
X6.341Y-0.75
X6.341Y-0.85
X6.341Y-0.95
X6.341Y-1.05
X6.341Y-1.15
X6.341Y-1.25
X6.341Y-1.35
X6.341Y-1.45
X6.341Y-1.55
X6.341Y-1.65
X6.341Y-1.75
X6.341Y-1.85
X6.341Y-1.95
X6.341Y-2.05
X6.341Y-2.15
X6.341Y-2.25
X6.341Y-2.35
X6.341Y-2.45
X6.341Y-2.55
X6.341Y-2.65
X6.341Y-2.75
X6.341Y-2.85
X6.341Y-2.95
X6.341Y-3.05
X6.341Y-3.15
X6.341Y-3.25
X6.341Y-3.35
X6.341Y-3.45
X6.341Y-3.55
X6.341Y-3.65
X6.341Y-3.75
X6.341Y-3.85
X6.341Y-3.95
X6.341Y-4.05
X6.341Y-4.15
X6.341Y-4.25
X6.95Y-0.75
X6.95Y-0.85
X6.95Y-0.95
X6.95Y-1.05
X6.95Y-1.15
X6.95Y-1.25
X6.95Y-1.35
X6.95Y-1.45
X6.95Y-1.55
X6.95Y-1.65
X6.95Y-1.75
X6.95Y-1.85
X6.95Y-1.95
X6.95Y-2.05
X6.95Y-2.15
X6.95Y-2.25
X6.95Y-2.35
X6.95Y-2.45
X6.95Y-2.55
X6.95Y-2.65
X6.95Y-2.75
X6.95Y-2.85
X6.95Y-2.95
X6.95Y-3.05
X6.95Y-3.15
X6.95Y-3.25
X6.95Y-3.35
X6.95Y-3.45
X6.95Y-3.55
X6.95Y-3.65
X6.95Y-3.75
X6.95Y-3.85
X6.95Y-3.95
X6.95Y-4.05
X6.95Y-4.15
X6.95Y-4.25
X7.141Y-0.75
X7.141Y-0.85
X7.141Y-0.95
X7.141Y-1.05
X7.141Y-1.15
X7.141Y-1.25
X7.141Y-1.35
X7.141Y-1.45
X7.141Y-1.55
X7.141Y-1.65
X7.141Y-1.75
X7.141Y-1.85
X7.141Y-1.95
X7.141Y-2.05
X7.141Y-2.15
X7.141Y-2.25
X7.141Y-2.35
X7.141Y-2.45
X7.141Y-2.55
X7.141Y-2.65
X7.141Y-2.75
X7.141Y-2.85
X7.141Y-2.95
X7.141Y-3.05
X7.141Y-3.15
X7.141Y-3.25
X7.141Y-3.35
X7.141Y-3.45
X7.141Y-3.55
X7.141Y-3.65
X7.141Y-3.75
X7.141Y-3.85
X7.141Y-3.95
X7.141Y-4.05
X7.141Y-4.15
X7.141Y-4.25
X7.75Y-0.75
X7.75Y-0.85
X7.75Y-0.95
X7.75Y-1.05
X7.75Y-1.15
X7.75Y-1.25
X7.75Y-1.35
X7.75Y-1.45
X7.75Y-1.55
X7.75Y-1.65
X7.75Y-1.75
X7.75Y-1.85
X7.75Y-1.95
X7.75Y-2.05
X7.75Y-2.15
X7.75Y-2.25
X7.75Y-2.35
X7.75Y-2.45
X7.75Y-2.55
X7.75Y-2.65
X7.75Y-2.75
X7.75Y-2.85
X7.75Y-2.95
X7.75Y-3.05
X7.75Y-3.15
X7.75Y-3.25
X7.75Y-3.35
X7.75Y-3.45
X7.75Y-3.55
X7.75Y-3.65
X7.75Y-3.75
X7.75Y-3.85
X7.75Y-3.95
X7.75Y-4.05
X7.75Y-4.15
X7.75Y-4.25
X7.941Y-0.75
X7.941Y-0.85
X7.941Y-0.95
X7.941Y-1.05
X7.941Y-1.15
X7.941Y-1.25
X7.941Y-1.35
X7.941Y-1.45
X7.941Y-1.55
X7.941Y-1.65
X7.941Y-1.75
X7.941Y-1.85
X7.941Y-1.95
X7.941Y-2.05
X7.941Y-2.15
X7.941Y-2.25
X7.941Y-2.35
X7.941Y-2.45
X7.941Y-2.55
X7.941Y-2.65
X7.941Y-2.75
X7.941Y-2.85
X7.941Y-2.95
X7.941Y-3.05
X7.941Y-3.15
X7.941Y-3.25
X7.941Y-3.35
X7.941Y-3.45
X7.941Y-3.55
X7.941Y-3.65
X7.941Y-3.75
X7.941Y-3.85
X7.941Y-3.95
X7.941Y-4.05
X7.941Y-4.15
X7.941Y-4.25
X8.55Y-0.75
X8.55Y-0.85
X8.55Y-0.95
X8.55Y-1.05
X8.55Y-1.15
X8.55Y-1.25
X8.55Y-1.35
X8.55Y-1.45
X8.55Y-1.55
X8.55Y-1.65
X8.55Y-1.75
X8.55Y-1.85
X8.55Y-1.95
X8.55Y-2.05
X8.55Y-2.15
X8.55Y-2.25
X8.55Y-2.35
X8.55Y-2.45
X8.55Y-2.55
X8.55Y-2.65
X8.55Y-2.75
X8.55Y-2.85
X8.55Y-2.95
X8.55Y-3.05
X8.55Y-3.15
X8.55Y-3.25
X8.55Y-3.35
X8.55Y-3.45
X8.55Y-3.55
X8.55Y-3.65
X8.55Y-3.75
X8.55Y-3.85
X8.55Y-3.95
X8.55Y-4.05
X8.55Y-4.15
X8.55Y-4.25
X8.741Y-0.75
X8.741Y-0.85
X8.741Y-0.95
X8.741Y-1.05
X8.741Y-1.15
X8.741Y-1.25
X8.741Y-1.35
X8.741Y-1.45
X8.741Y-1.55
X8.741Y-1.65
X8.741Y-1.75
X8.741Y-1.85
X8.741Y-1.95
X8.741Y-2.05
X8.741Y-2.15
X8.741Y-2.25
X8.741Y-2.35
X8.741Y-2.45
X8.741Y-2.55
X8.741Y-2.65
X8.741Y-2.75
X8.741Y-2.85
X8.741Y-2.95
X8.741Y-3.05
X8.741Y-3.15
X8.741Y-3.25
X8.741Y-3.35
X8.741Y-3.45
X8.741Y-3.55
X8.741Y-3.65
X8.741Y-3.75
X8.741Y-3.85
X8.741Y-3.95
X8.741Y-4.05
X8.741Y-4.15
X8.741Y-4.25
X9.35Y-0.75
X9.35Y-0.85
X9.35Y-0.95
X9.35Y-1.05
X9.35Y-1.15
X9.35Y-1.25
X9.35Y-1.35
X9.35Y-1.45
X9.35Y-1.55
X9.35Y-1.65
X9.35Y-1.75
X9.35Y-1.85
X9.35Y-1.95
X9.35Y-2.05
X9.35Y-2.15
X9.35Y-2.25
X9.35Y-2.35
X9.35Y-2.45
X9.35Y-2.55
X9.35Y-2.65
X9.35Y-2.75
X9.35Y-2.85
X9.35Y-2.95
X9.35Y-3.05
X9.35Y-3.15
X9.35Y-3.25
X9.35Y-3.35
X9.35Y-3.45
X9.35Y-3.55
X9.35Y-3.65
X9.35Y-3.75
X9.35Y-3.85
X9.35Y-3.95
X9.35Y-4.05
X9.35Y-4.15
X9.35Y-4.25
X9.541Y-0.75
X9.541Y-0.85
X9.541Y-0.95
X9.541Y-1.05
X9.541Y-1.15
X9.541Y-1.25
X9.541Y-1.35
X9.541Y-1.45
X9.541Y-1.55
X9.541Y-1.65
X9.541Y-1.75
X9.541Y-1.85
X9.541Y-1.95
X9.541Y-2.05
X9.541Y-2.15
X9.541Y-2.25
X9.541Y-2.35
X9.541Y-2.45
X9.541Y-2.55
X9.541Y-2.65
X9.541Y-2.75
X9.541Y-2.85
X9.541Y-2.95
X9.541Y-3.05
X9.541Y-3.15
X9.541Y-3.25
X9.541Y-3.35
X9.541Y-3.45
X9.541Y-3.55
X9.541Y-3.65
X9.541Y-3.75
X9.541Y-3.85
X9.541Y-3.95
X9.541Y-4.05
X9.541Y-4.15
X9.541Y-4.25
X10.15Y-0.75
X10.15Y-0.85
X10.15Y-0.95
X10.15Y-1.05
X10.15Y-1.15
X10.15Y-1.25
X10.15Y-1.35
X10.15Y-1.45
X10.15Y-1.55
X10.15Y-1.65
X10.15Y-1.75
X10.15Y-1.85
X10.15Y-1.95
X10.15Y-2.05
X10.15Y-2.15
X10.15Y-2.25
X10.15Y-2.35
X10.15Y-2.45
X10.15Y-2.55
X10.15Y-2.65
X10.15Y-2.75
X10.15Y-2.85
X10.15Y-2.95
X10.15Y-3.05
X10.15Y-3.15
X10.15Y-3.25
X10.15Y-3.35
X10.15Y-3.45
X10.15Y-3.55
X10.15Y-3.65
X10.15Y-3.75
X10.15Y-3.85
X10.15Y-3.95
X10.15Y-4.05
X10.15Y-4.15
X10.15Y-4.25
X10.341Y-0.75
X10.341Y-0.85
X10.341Y-0.95
X10.341Y-1.05
X10.341Y-1.15
X10.341Y-1.25
X10.341Y-1.35
X10.341Y-1.45
X10.341Y-1.55
X10.341Y-1.65
X10.341Y-1.75
X10.341Y-1.85
X10.341Y-1.95
X10.341Y-2.05
X10.341Y-2.15
X10.341Y-2.25
X10.341Y-2.35
X10.341Y-2.45
X10.341Y-2.55
X10.341Y-2.65
X10.341Y-2.75
X10.341Y-2.85
X10.341Y-2.95
X10.341Y-3.05
X10.341Y-3.15
X10.341Y-3.25
X10.341Y-3.35
X10.341Y-3.45
X10.341Y-3.55
X10.341Y-3.65
X10.341Y-3.75
X10.341Y-3.85
X10.341Y-3.95
X10.341Y-4.05
X10.341Y-4.15
X10.341Y-4.25
T6
X11.103Y-3.9352
X11.103Y-4.4548
T7
X10.8589Y-4.0966
X10.8589Y-4.2934
X11.2266Y-0.675
X11.2266Y-0.8404
X11.2266Y-1.0057
X11.2266Y-1.1711
X11.2266Y-1.3364
X11.2266Y-1.5018
X11.2266Y-1.6671
X11.2266Y-1.8325
X11.2266Y-1.9978
X11.2266Y-2.1632
X11.2266Y-2.3285
X11.2266Y-2.4939
X11.347Y-4.0966
X11.347Y-4.2934
X11.4431Y-0.675
X11.4431Y-0.8404
X11.4431Y-1.0057
X11.4431Y-1.1711
X11.4431Y-1.3364
X11.4431Y-1.5018
X11.4431Y-1.6671
X11.4431Y-1.8325
X11.4431Y-1.9978
X11.4431Y-2.1632
X11.4431Y-2.3285
X11.4431Y-2.4939
T8
X0.25Y-0.25
X0.25Y-4.75
X3.05Y-0.25
X3.05Y-4.75
X5.85Y-0.25
X5.85Y-4.75
X8.65Y-0.25
X8.65Y-4.75
X11.45Y-0.25
X11.45Y-4.75
M30
