%TF.GenerationSoftware,KiCad,Pcbnew,9.0.7*%
%TF.CreationDate,2026-02-22T19:12:49-05:00*%
%TF.ProjectId,Episode4,45706973-6f64-4653-942e-6b696361645f,2*%
%TF.SameCoordinates,Original*%
%TF.FileFunction,Paste,Top*%
%TF.FilePolarity,Positive*%
%FSLAX46Y46*%
G04 Gerber Fmt 4.6, Leading zero omitted, Abs format (unit mm)*
G04 Created by KiCad (PCBNEW 9.0.7) date 2026-02-22 19:12:49*
%MOMM*%
%LPD*%
G01*
G04 APERTURE LIST*
G04 Aperture macros list*
%AMRoundRect*
0 Rectangle with rounded corners*
0 $1 Rounding radius*
0 $2 $3 $4 $5 $6 $7 $8 $9 X,Y pos of 4 corners*
0 Add a 4 corners polygon primitive as box body*
4,1,4,$2,$3,$4,$5,$6,$7,$8,$9,$2,$3,0*
0 Add four circle primitives for the rounded corners*
1,1,$1+$1,$2,$3*
1,1,$1+$1,$4,$5*
1,1,$1+$1,$6,$7*
1,1,$1+$1,$8,$9*
0 Add four rect primitives between the rounded corners*
20,1,$1+$1,$2,$3,$4,$5,0*
20,1,$1+$1,$4,$5,$6,$7,0*
20,1,$1+$1,$6,$7,$8,$9,0*
20,1,$1+$1,$8,$9,$2,$3,0*%
G04 Aperture macros list end*
%ADD10RoundRect,0.250000X0.337500X0.475000X-0.337500X0.475000X-0.337500X-0.475000X0.337500X-0.475000X0*%
%ADD11RoundRect,0.250000X-0.450000X0.350000X-0.450000X-0.350000X0.450000X-0.350000X0.450000X0.350000X0*%
%ADD12RoundRect,0.250000X0.550000X-1.050000X0.550000X1.050000X-0.550000X1.050000X-0.550000X-1.050000X0*%
%ADD13RoundRect,0.250000X0.475000X-0.337500X0.475000X0.337500X-0.475000X0.337500X-0.475000X-0.337500X0*%
%ADD14RoundRect,0.250000X-0.350000X-0.450000X0.350000X-0.450000X0.350000X0.450000X-0.350000X0.450000X0*%
%ADD15RoundRect,0.250000X-0.550000X1.050000X-0.550000X-1.050000X0.550000X-1.050000X0.550000X1.050000X0*%
%ADD16RoundRect,0.250000X-1.000000X-0.900000X1.000000X-0.900000X1.000000X0.900000X-1.000000X0.900000X0*%
%ADD17RoundRect,0.250000X-0.475000X0.337500X-0.475000X-0.337500X0.475000X-0.337500X0.475000X0.337500X0*%
%ADD18RoundRect,0.250000X1.500000X0.550000X-1.500000X0.550000X-1.500000X-0.550000X1.500000X-0.550000X0*%
%ADD19RoundRect,0.150000X0.150000X-0.825000X0.150000X0.825000X-0.150000X0.825000X-0.150000X-0.825000X0*%
%ADD20RoundRect,0.250001X-0.462499X-0.624999X0.462499X-0.624999X0.462499X0.624999X-0.462499X0.624999X0*%
%ADD21RoundRect,0.250000X0.550000X-1.500000X0.550000X1.500000X-0.550000X1.500000X-0.550000X-1.500000X0*%
%ADD22RoundRect,0.250000X-0.550000X1.500000X-0.550000X-1.500000X0.550000X-1.500000X0.550000X1.500000X0*%
%ADD23RoundRect,0.250000X0.450000X-0.350000X0.450000X0.350000X-0.450000X0.350000X-0.450000X-0.350000X0*%
%ADD24RoundRect,0.250000X1.000000X0.900000X-1.000000X0.900000X-1.000000X-0.900000X1.000000X-0.900000X0*%
%ADD25RoundRect,0.250000X0.350000X0.450000X-0.350000X0.450000X-0.350000X-0.450000X0.350000X-0.450000X0*%
G04 APERTURE END LIST*
D10*
%TO.C,C23*%
X48027500Y-45720000D03*
X45952500Y-45720000D03*
%TD*%
%TO.C,C17*%
X27707500Y-100330000D03*
X25632500Y-100330000D03*
%TD*%
D11*
%TO.C,R8*%
X279400000Y-119015000D03*
X279400000Y-121015000D03*
%TD*%
D10*
%TO.C,C128*%
X190267500Y-45720000D03*
X188192500Y-45720000D03*
%TD*%
%TO.C,C35*%
X68347500Y-26670000D03*
X66272500Y-26670000D03*
%TD*%
%TO.C,C47*%
X68347500Y-100330000D03*
X66272500Y-100330000D03*
%TD*%
D12*
%TO.C,C58*%
X87630000Y-82445000D03*
X87630000Y-78845000D03*
%TD*%
D13*
%TO.C,C192*%
X269875000Y-9927500D03*
X269875000Y-7852500D03*
%TD*%
D10*
%TO.C,C22*%
X48027500Y-41910000D03*
X45952500Y-41910000D03*
%TD*%
D12*
%TO.C,C48*%
X67310000Y-108480000D03*
X67310000Y-104880000D03*
%TD*%
D10*
%TO.C,C14*%
X27707500Y-87630000D03*
X25632500Y-87630000D03*
%TD*%
D13*
%TO.C,C198*%
X276225000Y-9927500D03*
X276225000Y-7852500D03*
%TD*%
D10*
%TO.C,C89*%
X129307500Y-87630000D03*
X127232500Y-87630000D03*
%TD*%
D14*
%TO.C,R1*%
X164100000Y-114935000D03*
X166100000Y-114935000D03*
%TD*%
D10*
%TO.C,C80*%
X129307500Y-26670000D03*
X127232500Y-26670000D03*
%TD*%
D15*
%TO.C,C64*%
X107950000Y-18520000D03*
X107950000Y-22120000D03*
%TD*%
D12*
%TO.C,C24*%
X46990000Y-53870000D03*
X46990000Y-50270000D03*
%TD*%
D10*
%TO.C,C161*%
X230907500Y-66040000D03*
X228832500Y-66040000D03*
%TD*%
%TO.C,C122*%
X169947500Y-100330000D03*
X167872500Y-100330000D03*
%TD*%
D12*
%TO.C,C144*%
X209550000Y-53870000D03*
X209550000Y-50270000D03*
%TD*%
D10*
%TO.C,C125*%
X190267500Y-26670000D03*
X188192500Y-26670000D03*
%TD*%
D12*
%TO.C,C73*%
X107950000Y-82445000D03*
X107950000Y-78845000D03*
%TD*%
D13*
%TO.C,C185*%
X248285000Y-121052500D03*
X248285000Y-118977500D03*
%TD*%
D10*
%TO.C,C71*%
X108987500Y-66040000D03*
X106912500Y-66040000D03*
%TD*%
%TO.C,C40*%
X68347500Y-62230000D03*
X66272500Y-62230000D03*
%TD*%
%TO.C,C96*%
X149627500Y-30480000D03*
X147552500Y-30480000D03*
%TD*%
%TO.C,C131*%
X190267500Y-66040000D03*
X188192500Y-66040000D03*
%TD*%
D13*
%TO.C,C196*%
X273050000Y-34057500D03*
X273050000Y-31982500D03*
%TD*%
D12*
%TO.C,C117*%
X168910000Y-74190000D03*
X168910000Y-70590000D03*
%TD*%
%TO.C,C12*%
X26670000Y-74190000D03*
X26670000Y-70590000D03*
%TD*%
D10*
%TO.C,C126*%
X190267500Y-30480000D03*
X188192500Y-30480000D03*
%TD*%
D16*
%TO.C,D4*%
X51825000Y-6350000D03*
X56125000Y-6350000D03*
%TD*%
D10*
%TO.C,C120*%
X169947500Y-91440000D03*
X167872500Y-91440000D03*
%TD*%
%TO.C,C11*%
X27707500Y-66040000D03*
X25632500Y-66040000D03*
%TD*%
D12*
%TO.C,C123*%
X168910000Y-108480000D03*
X168910000Y-104880000D03*
%TD*%
D13*
%TO.C,C197*%
X273050000Y-58187500D03*
X273050000Y-56112500D03*
%TD*%
D10*
%TO.C,C76*%
X108987500Y-96520000D03*
X106912500Y-96520000D03*
%TD*%
D12*
%TO.C,C63*%
X87630000Y-108480000D03*
X87630000Y-104880000D03*
%TD*%
D10*
%TO.C,C59*%
X88667500Y-87630000D03*
X86592500Y-87630000D03*
%TD*%
%TO.C,C107*%
X149627500Y-100330000D03*
X147552500Y-100330000D03*
%TD*%
D15*
%TO.C,C154*%
X229870000Y-18520000D03*
X229870000Y-22120000D03*
%TD*%
D10*
%TO.C,C113*%
X169947500Y-45720000D03*
X167872500Y-45720000D03*
%TD*%
D17*
%TO.C,C203*%
X282575000Y-88730000D03*
X282575000Y-90805000D03*
%TD*%
D10*
%TO.C,C158*%
X230907500Y-45720000D03*
X228832500Y-45720000D03*
%TD*%
%TO.C,C36*%
X68347500Y-30480000D03*
X66272500Y-30480000D03*
%TD*%
%TO.C,C156*%
X230907500Y-30480000D03*
X228832500Y-30480000D03*
%TD*%
%TO.C,C26*%
X48027500Y-66040000D03*
X45952500Y-66040000D03*
%TD*%
D12*
%TO.C,C114*%
X168910000Y-53870000D03*
X168910000Y-50270000D03*
%TD*%
D17*
%TO.C,C207*%
X292735000Y-88730000D03*
X292735000Y-90805000D03*
%TD*%
D10*
%TO.C,C137*%
X190267500Y-100330000D03*
X188192500Y-100330000D03*
%TD*%
%TO.C,C142*%
X210587500Y-41910000D03*
X208512500Y-41910000D03*
%TD*%
%TO.C,C66*%
X108987500Y-30480000D03*
X106912500Y-30480000D03*
%TD*%
%TO.C,C68*%
X108987500Y-45720000D03*
X106912500Y-45720000D03*
%TD*%
D12*
%TO.C,C184*%
X250190000Y-108480000D03*
X250190000Y-104880000D03*
%TD*%
%TO.C,C133*%
X189230000Y-82445000D03*
X189230000Y-78845000D03*
%TD*%
D10*
%TO.C,C61*%
X88667500Y-96520000D03*
X86592500Y-96520000D03*
%TD*%
%TO.C,C165*%
X230907500Y-91440000D03*
X228832500Y-91440000D03*
%TD*%
%TO.C,C130*%
X190267500Y-62230000D03*
X188192500Y-62230000D03*
%TD*%
%TO.C,C183*%
X251227500Y-100330000D03*
X249152500Y-100330000D03*
%TD*%
D12*
%TO.C,C178*%
X250190000Y-74190000D03*
X250190000Y-70590000D03*
%TD*%
%TO.C,C99*%
X148590000Y-53870000D03*
X148590000Y-50270000D03*
%TD*%
D10*
%TO.C,C160*%
X230907500Y-62230000D03*
X228832500Y-62230000D03*
%TD*%
D12*
%TO.C,C168*%
X229870000Y-108480000D03*
X229870000Y-104880000D03*
%TD*%
D15*
%TO.C,C49*%
X87630000Y-18520000D03*
X87630000Y-22120000D03*
%TD*%
D10*
%TO.C,C77*%
X108987500Y-100330000D03*
X106912500Y-100330000D03*
%TD*%
D17*
%TO.C,C204*%
X285115000Y-88730000D03*
X285115000Y-90805000D03*
%TD*%
D12*
%TO.C,C13*%
X26670000Y-83080000D03*
X26670000Y-79480000D03*
%TD*%
D10*
%TO.C,C21*%
X48027500Y-30480000D03*
X45952500Y-30480000D03*
%TD*%
%TO.C,C31*%
X48027500Y-96520000D03*
X45952500Y-96520000D03*
%TD*%
D17*
%TO.C,C206*%
X290195000Y-88730000D03*
X290195000Y-90805000D03*
%TD*%
D10*
%TO.C,C119*%
X169947500Y-87630000D03*
X167872500Y-87630000D03*
%TD*%
%TO.C,C127*%
X190267500Y-41910000D03*
X188192500Y-41910000D03*
%TD*%
D12*
%TO.C,C162*%
X229870000Y-74190000D03*
X229870000Y-70590000D03*
%TD*%
D18*
%TO.C,C201*%
X288450000Y-74930000D03*
X283050000Y-74930000D03*
%TD*%
D10*
%TO.C,C45*%
X68347500Y-91440000D03*
X66272500Y-91440000D03*
%TD*%
D12*
%TO.C,C18*%
X26670000Y-108480000D03*
X26670000Y-104880000D03*
%TD*%
D10*
%TO.C,C41*%
X68347500Y-66040000D03*
X66272500Y-66040000D03*
%TD*%
D19*
%TO.C,U2*%
X254000000Y-122555000D03*
X255270000Y-122555000D03*
X256540000Y-122555000D03*
X257810000Y-122555000D03*
X259080000Y-122555000D03*
X260350000Y-122555000D03*
X261620000Y-122555000D03*
X261620000Y-117605000D03*
X260350000Y-117605000D03*
X259080000Y-117605000D03*
X257810000Y-117605000D03*
X256540000Y-117605000D03*
X255270000Y-117605000D03*
X254000000Y-117605000D03*
%TD*%
D20*
%TO.C,D9*%
X201712500Y-118110000D03*
X204687500Y-118110000D03*
%TD*%
D10*
%TO.C,C105*%
X149627500Y-91440000D03*
X147552500Y-91440000D03*
%TD*%
D17*
%TO.C,C205*%
X287655000Y-88730000D03*
X287655000Y-90805000D03*
%TD*%
D21*
%TO.C,C188*%
X273050000Y-47150000D03*
X273050000Y-41750000D03*
%TD*%
D10*
%TO.C,C104*%
X149627500Y-87630000D03*
X147552500Y-87630000D03*
%TD*%
%TO.C,C135*%
X190267500Y-91440000D03*
X188192500Y-91440000D03*
%TD*%
D20*
%TO.C,D6*%
X163612500Y-118110000D03*
X166587500Y-118110000D03*
%TD*%
D10*
%TO.C,C46*%
X68347500Y-96520000D03*
X66272500Y-96520000D03*
%TD*%
%TO.C,C2*%
X27707500Y-26670000D03*
X25632500Y-26670000D03*
%TD*%
%TO.C,C92*%
X129307500Y-100330000D03*
X127232500Y-100330000D03*
%TD*%
D12*
%TO.C,C179*%
X250190000Y-82445000D03*
X250190000Y-78845000D03*
%TD*%
D10*
%TO.C,C150*%
X210587500Y-91440000D03*
X208512500Y-91440000D03*
%TD*%
%TO.C,C5*%
X27707500Y-38205000D03*
X25632500Y-38205000D03*
%TD*%
%TO.C,C166*%
X230907500Y-96520000D03*
X228832500Y-96520000D03*
%TD*%
%TO.C,C155*%
X230907500Y-26670000D03*
X228832500Y-26670000D03*
%TD*%
D14*
%TO.C,R2*%
X176800000Y-114935000D03*
X178800000Y-114935000D03*
%TD*%
D10*
%TO.C,C110*%
X169947500Y-26670000D03*
X167872500Y-26670000D03*
%TD*%
%TO.C,C141*%
X210587500Y-30480000D03*
X208512500Y-30480000D03*
%TD*%
%TO.C,C145*%
X210587500Y-62230000D03*
X208512500Y-62230000D03*
%TD*%
D15*
%TO.C,C19*%
X46990000Y-18520000D03*
X46990000Y-22120000D03*
%TD*%
D10*
%TO.C,C38*%
X68347500Y-45720000D03*
X66272500Y-45720000D03*
%TD*%
D20*
%TO.C,D7*%
X176312500Y-118110000D03*
X179287500Y-118110000D03*
%TD*%
D10*
%TO.C,C95*%
X149627500Y-26670000D03*
X147552500Y-26670000D03*
%TD*%
D12*
%TO.C,C33*%
X46990000Y-108480000D03*
X46990000Y-104880000D03*
%TD*%
D10*
%TO.C,C140*%
X210587500Y-26670000D03*
X208512500Y-26670000D03*
%TD*%
%TO.C,C20*%
X48027500Y-26670000D03*
X45952500Y-26670000D03*
%TD*%
D12*
%TO.C,C147*%
X209550000Y-74190000D03*
X209550000Y-70590000D03*
%TD*%
D10*
%TO.C,C101*%
X149627500Y-66040000D03*
X147552500Y-66040000D03*
%TD*%
%TO.C,C75*%
X108987500Y-91440000D03*
X106912500Y-91440000D03*
%TD*%
D13*
%TO.C,C200*%
X276225000Y-58187500D03*
X276225000Y-56112500D03*
%TD*%
D10*
%TO.C,C121*%
X169947500Y-96520000D03*
X167872500Y-96520000D03*
%TD*%
%TO.C,C53*%
X88667500Y-45720000D03*
X86592500Y-45720000D03*
%TD*%
D12*
%TO.C,C27*%
X46990000Y-74190000D03*
X46990000Y-70590000D03*
%TD*%
D13*
%TO.C,C193*%
X269875000Y-34057500D03*
X269875000Y-31982500D03*
%TD*%
D15*
%TO.C,C124*%
X189230000Y-18520000D03*
X189230000Y-22120000D03*
%TD*%
D10*
%TO.C,C16*%
X27707500Y-96520000D03*
X25632500Y-96520000D03*
%TD*%
D20*
%TO.C,D8*%
X189012500Y-118110000D03*
X191987500Y-118110000D03*
%TD*%
D15*
%TO.C,C94*%
X148590000Y-18520000D03*
X148590000Y-22120000D03*
%TD*%
D10*
%TO.C,C134*%
X190267500Y-87630000D03*
X188192500Y-87630000D03*
%TD*%
%TO.C,C29*%
X48027500Y-87630000D03*
X45952500Y-87630000D03*
%TD*%
D22*
%TO.C,C187*%
X273050000Y-17620000D03*
X273050000Y-23020000D03*
%TD*%
D10*
%TO.C,C151*%
X210587500Y-96520000D03*
X208512500Y-96520000D03*
%TD*%
D16*
%TO.C,D2*%
X27695000Y-6350000D03*
X31995000Y-6350000D03*
%TD*%
D10*
%TO.C,C50*%
X88667500Y-26670000D03*
X86592500Y-26670000D03*
%TD*%
D12*
%TO.C,C84*%
X128270000Y-53870000D03*
X128270000Y-50270000D03*
%TD*%
%TO.C,C102*%
X148590000Y-74190000D03*
X148590000Y-70590000D03*
%TD*%
D19*
%TO.C,U1*%
X233680000Y-122490000D03*
X234950000Y-122490000D03*
X236220000Y-122490000D03*
X237490000Y-122490000D03*
X238760000Y-122490000D03*
X240030000Y-122490000D03*
X241300000Y-122490000D03*
X241300000Y-117540000D03*
X240030000Y-117540000D03*
X238760000Y-117540000D03*
X237490000Y-117540000D03*
X236220000Y-117540000D03*
X234950000Y-117540000D03*
X233680000Y-117540000D03*
%TD*%
D13*
%TO.C,C194*%
X269875000Y-58187500D03*
X269875000Y-56112500D03*
%TD*%
D10*
%TO.C,C157*%
X230907500Y-41910000D03*
X228832500Y-41910000D03*
%TD*%
%TO.C,C97*%
X149627500Y-41910000D03*
X147552500Y-41910000D03*
%TD*%
D13*
%TO.C,C199*%
X276225000Y-34057500D03*
X276225000Y-31982500D03*
%TD*%
D10*
%TO.C,C182*%
X251227500Y-96520000D03*
X249152500Y-96520000D03*
%TD*%
%TO.C,C37*%
X68347500Y-41910000D03*
X66272500Y-41910000D03*
%TD*%
%TO.C,C90*%
X129307500Y-91440000D03*
X127232500Y-91440000D03*
%TD*%
D12*
%TO.C,C78*%
X107950000Y-108480000D03*
X107950000Y-104880000D03*
%TD*%
D15*
%TO.C,C34*%
X67310000Y-18520000D03*
X67310000Y-22120000D03*
%TD*%
D10*
%TO.C,C152*%
X210587500Y-100330000D03*
X208512500Y-100330000D03*
%TD*%
%TO.C,C30*%
X48027500Y-91440000D03*
X45952500Y-91440000D03*
%TD*%
%TO.C,C100*%
X149627500Y-62230000D03*
X147552500Y-62230000D03*
%TD*%
%TO.C,C149*%
X210587500Y-87630000D03*
X208512500Y-87630000D03*
%TD*%
%TO.C,C115*%
X169947500Y-62230000D03*
X167872500Y-62230000D03*
%TD*%
D12*
%TO.C,C43*%
X67310000Y-82445000D03*
X67310000Y-78845000D03*
%TD*%
D10*
%TO.C,C181*%
X251227500Y-91440000D03*
X249152500Y-91440000D03*
%TD*%
%TO.C,C65*%
X108987500Y-26670000D03*
X106912500Y-26670000D03*
%TD*%
D15*
%TO.C,C79*%
X128270000Y-18520000D03*
X128270000Y-22120000D03*
%TD*%
D10*
%TO.C,C177*%
X251227500Y-66040000D03*
X249152500Y-66040000D03*
%TD*%
%TO.C,C143*%
X210587500Y-45720000D03*
X208512500Y-45720000D03*
%TD*%
%TO.C,C4*%
X27707500Y-34290000D03*
X25632500Y-34290000D03*
%TD*%
%TO.C,C167*%
X230907500Y-100330000D03*
X228832500Y-100330000D03*
%TD*%
D16*
%TO.C,D3*%
X39760000Y-120650000D03*
X44060000Y-120650000D03*
%TD*%
D15*
%TO.C,C139*%
X209550000Y-18520000D03*
X209550000Y-22120000D03*
%TD*%
D10*
%TO.C,C62*%
X88667500Y-100330000D03*
X86592500Y-100330000D03*
%TD*%
D12*
%TO.C,C138*%
X189230000Y-108480000D03*
X189230000Y-104880000D03*
%TD*%
%TO.C,C39*%
X67310000Y-53870000D03*
X67310000Y-50270000D03*
%TD*%
D10*
%TO.C,C174*%
X251227500Y-45720000D03*
X249152500Y-45720000D03*
%TD*%
%TO.C,C60*%
X88667500Y-91440000D03*
X86592500Y-91440000D03*
%TD*%
%TO.C,C44*%
X68347500Y-87630000D03*
X66272500Y-87630000D03*
%TD*%
%TO.C,C83*%
X129307500Y-45720000D03*
X127232500Y-45720000D03*
%TD*%
%TO.C,C172*%
X251227500Y-30480000D03*
X249152500Y-30480000D03*
%TD*%
%TO.C,C106*%
X149627500Y-96520000D03*
X147552500Y-96520000D03*
%TD*%
%TO.C,C15*%
X27707500Y-92710000D03*
X25632500Y-92710000D03*
%TD*%
%TO.C,C25*%
X48027500Y-62230000D03*
X45952500Y-62230000D03*
%TD*%
D12*
%TO.C,C132*%
X189230000Y-74190000D03*
X189230000Y-70590000D03*
%TD*%
D10*
%TO.C,C9*%
X27707500Y-58420000D03*
X25632500Y-58420000D03*
%TD*%
D12*
%TO.C,C103*%
X148590000Y-82445000D03*
X148590000Y-78845000D03*
%TD*%
%TO.C,C72*%
X107950000Y-74190000D03*
X107950000Y-70590000D03*
%TD*%
D10*
%TO.C,C164*%
X230907500Y-87630000D03*
X228832500Y-87630000D03*
%TD*%
D13*
%TO.C,C195*%
X273050000Y-9927500D03*
X273050000Y-7852500D03*
%TD*%
D12*
%TO.C,C42*%
X67310000Y-74190000D03*
X67310000Y-70590000D03*
%TD*%
D10*
%TO.C,C6*%
X27707500Y-41910000D03*
X25632500Y-41910000D03*
%TD*%
D12*
%TO.C,C148*%
X209550000Y-82445000D03*
X209550000Y-78845000D03*
%TD*%
D13*
%TO.C,C191*%
X269240000Y-121052500D03*
X269240000Y-118977500D03*
%TD*%
D17*
%TO.C,C169*%
X230505000Y-119042500D03*
X230505000Y-121117500D03*
%TD*%
D12*
%TO.C,C88*%
X128270000Y-82445000D03*
X128270000Y-78845000D03*
%TD*%
%TO.C,C54*%
X87630000Y-53870000D03*
X87630000Y-50270000D03*
%TD*%
%TO.C,C87*%
X128270000Y-74190000D03*
X128270000Y-70590000D03*
%TD*%
D10*
%TO.C,C136*%
X190267500Y-96520000D03*
X188192500Y-96520000D03*
%TD*%
%TO.C,C74*%
X108987500Y-87630000D03*
X106912500Y-87630000D03*
%TD*%
D12*
%TO.C,C175*%
X250190000Y-53870000D03*
X250190000Y-50270000D03*
%TD*%
D10*
%TO.C,C180*%
X251227500Y-87630000D03*
X249152500Y-87630000D03*
%TD*%
D11*
%TO.C,R6*%
X274320000Y-119015000D03*
X274320000Y-121015000D03*
%TD*%
D12*
%TO.C,C159*%
X229870000Y-53870000D03*
X229870000Y-50270000D03*
%TD*%
D10*
%TO.C,C55*%
X88667500Y-62230000D03*
X86592500Y-62230000D03*
%TD*%
D12*
%TO.C,C163*%
X229870000Y-82445000D03*
X229870000Y-78845000D03*
%TD*%
D17*
%TO.C,C202*%
X280035000Y-88730000D03*
X280035000Y-90805000D03*
%TD*%
D10*
%TO.C,C51*%
X88667500Y-30480000D03*
X86592500Y-30480000D03*
%TD*%
D15*
%TO.C,C170*%
X250190000Y-18520000D03*
X250190000Y-22120000D03*
%TD*%
D12*
%TO.C,C8*%
X26670000Y-53870000D03*
X26670000Y-50270000D03*
%TD*%
D21*
%TO.C,C190*%
X273050000Y-88425000D03*
X273050000Y-83025000D03*
%TD*%
D10*
%TO.C,C171*%
X251227500Y-26670000D03*
X249152500Y-26670000D03*
%TD*%
%TO.C,C98*%
X149627500Y-45720000D03*
X147552500Y-45720000D03*
%TD*%
%TO.C,C85*%
X129307500Y-62230000D03*
X127232500Y-62230000D03*
%TD*%
%TO.C,C176*%
X251227500Y-62230000D03*
X249152500Y-62230000D03*
%TD*%
%TO.C,C7*%
X27707500Y-45720000D03*
X25632500Y-45720000D03*
%TD*%
%TO.C,C67*%
X108987500Y-41910000D03*
X106912500Y-41910000D03*
%TD*%
D23*
%TO.C,R7*%
X276860000Y-121015000D03*
X276860000Y-119015000D03*
%TD*%
D12*
%TO.C,C129*%
X189230000Y-53870000D03*
X189230000Y-50270000D03*
%TD*%
D10*
%TO.C,C112*%
X169947500Y-41910000D03*
X167872500Y-41910000D03*
%TD*%
%TO.C,C91*%
X129307500Y-96520000D03*
X127232500Y-96520000D03*
%TD*%
%TO.C,C3*%
X27707500Y-30480000D03*
X25632500Y-30480000D03*
%TD*%
%TO.C,C82*%
X129307500Y-41910000D03*
X127232500Y-41910000D03*
%TD*%
D12*
%TO.C,C153*%
X209550000Y-108480000D03*
X209550000Y-104880000D03*
%TD*%
D15*
%TO.C,C1*%
X26670000Y-18520000D03*
X26670000Y-22120000D03*
%TD*%
D11*
%TO.C,R5*%
X271780000Y-119015000D03*
X271780000Y-121015000D03*
%TD*%
D10*
%TO.C,C86*%
X129307500Y-66040000D03*
X127232500Y-66040000D03*
%TD*%
D24*
%TO.C,D5*%
X61840000Y-120650000D03*
X57540000Y-120650000D03*
%TD*%
D10*
%TO.C,C70*%
X108987500Y-62230000D03*
X106912500Y-62230000D03*
%TD*%
%TO.C,C81*%
X129307500Y-30480000D03*
X127232500Y-30480000D03*
%TD*%
D12*
%TO.C,C108*%
X148590000Y-108480000D03*
X148590000Y-104880000D03*
%TD*%
%TO.C,C28*%
X46990000Y-83080000D03*
X46990000Y-79480000D03*
%TD*%
D25*
%TO.C,R4*%
X204200000Y-114935000D03*
X202200000Y-114935000D03*
%TD*%
D16*
%TO.C,D1*%
X21980000Y-120650000D03*
X26280000Y-120650000D03*
%TD*%
D12*
%TO.C,C118*%
X168910000Y-82445000D03*
X168910000Y-78845000D03*
%TD*%
D10*
%TO.C,C56*%
X88667500Y-66040000D03*
X86592500Y-66040000D03*
%TD*%
%TO.C,C111*%
X169947500Y-30480000D03*
X167872500Y-30480000D03*
%TD*%
%TO.C,C146*%
X210587500Y-66040000D03*
X208512500Y-66040000D03*
%TD*%
D15*
%TO.C,C109*%
X168910000Y-18520000D03*
X168910000Y-22120000D03*
%TD*%
D10*
%TO.C,C173*%
X251227500Y-41910000D03*
X249152500Y-41910000D03*
%TD*%
D17*
%TO.C,C186*%
X250825000Y-119042500D03*
X250825000Y-121117500D03*
%TD*%
D10*
%TO.C,C10*%
X27707500Y-62230000D03*
X25632500Y-62230000D03*
%TD*%
D14*
%TO.C,R3*%
X189500000Y-114935000D03*
X191500000Y-114935000D03*
%TD*%
D12*
%TO.C,C69*%
X107820000Y-53870000D03*
X107820000Y-50270000D03*
%TD*%
D10*
%TO.C,C32*%
X48027500Y-100330000D03*
X45952500Y-100330000D03*
%TD*%
D12*
%TO.C,C93*%
X128270000Y-108480000D03*
X128270000Y-104880000D03*
%TD*%
D10*
%TO.C,C116*%
X169947500Y-66040000D03*
X167872500Y-66040000D03*
%TD*%
D12*
%TO.C,C57*%
X87630000Y-74190000D03*
X87630000Y-70590000D03*
%TD*%
D21*
%TO.C,C189*%
X273050000Y-69375000D03*
X273050000Y-63975000D03*
%TD*%
D10*
%TO.C,C52*%
X88667500Y-41910000D03*
X86592500Y-41910000D03*
%TD*%
M02*
