%TF.GenerationSoftware,KiCad,Pcbnew,9.0.7*%
%TF.CreationDate,2026-02-22T19:12:50-05:00*%
%TF.ProjectId,Episode4,45706973-6f64-4653-942e-6b696361645f,2*%
%TF.SameCoordinates,Original*%
%TF.FileFunction,Other,Comment*%
%FSLAX46Y46*%
G04 Gerber Fmt 4.6, Leading zero omitted, Abs format (unit mm)*
G04 Created by KiCad (PCBNEW 9.0.7) date 2026-02-22 19:12:50*
%MOMM*%
%LPD*%
G01*
G04 APERTURE LIST*
%ADD10C,0.150000*%
G04 APERTURE END LIST*
D10*
%TO.C,H10*%
X294330000Y-120650000D02*
G75*
G02*
X287330000Y-120650000I-3500000J0D01*
G01*
X287330000Y-120650000D02*
G75*
G02*
X294330000Y-120650000I3500000J0D01*
G01*
%TO.C,H2*%
X9850000Y-120650000D02*
G75*
G02*
X2850000Y-120650000I-3500000J0D01*
G01*
X2850000Y-120650000D02*
G75*
G02*
X9850000Y-120650000I3500000J0D01*
G01*
%TO.C,H8*%
X223210000Y-120650000D02*
G75*
G02*
X216210000Y-120650000I-3500000J0D01*
G01*
X216210000Y-120650000D02*
G75*
G02*
X223210000Y-120650000I3500000J0D01*
G01*
%TO.C,H5*%
X152090000Y-6350000D02*
G75*
G02*
X145090000Y-6350000I-3500000J0D01*
G01*
X145090000Y-6350000D02*
G75*
G02*
X152090000Y-6350000I3500000J0D01*
G01*
%TO.C,H3*%
X80970000Y-6350000D02*
G75*
G02*
X73970000Y-6350000I-3500000J0D01*
G01*
X73970000Y-6350000D02*
G75*
G02*
X80970000Y-6350000I3500000J0D01*
G01*
%TO.C,H9*%
X294330000Y-6350000D02*
G75*
G02*
X287330000Y-6350000I-3500000J0D01*
G01*
X287330000Y-6350000D02*
G75*
G02*
X294330000Y-6350000I3500000J0D01*
G01*
%TO.C,H1*%
X9850000Y-6350000D02*
G75*
G02*
X2850000Y-6350000I-3500000J0D01*
G01*
X2850000Y-6350000D02*
G75*
G02*
X9850000Y-6350000I3500000J0D01*
G01*
%TO.C,H4*%
X80970000Y-120650000D02*
G75*
G02*
X73970000Y-120650000I-3500000J0D01*
G01*
X73970000Y-120650000D02*
G75*
G02*
X80970000Y-120650000I3500000J0D01*
G01*
%TO.C,H6*%
X152090000Y-120650000D02*
G75*
G02*
X145090000Y-120650000I-3500000J0D01*
G01*
X145090000Y-120650000D02*
G75*
G02*
X152090000Y-120650000I3500000J0D01*
G01*
%TO.C,H7*%
X223210000Y-6350000D02*
G75*
G02*
X216210000Y-6350000I-3500000J0D01*
G01*
X216210000Y-6350000D02*
G75*
G02*
X223210000Y-6350000I3500000J0D01*
G01*
%TD*%
M02*
