%TF.GenerationSoftware,KiCad,Pcbnew,9.0.7*%
%TF.CreationDate,2026-02-22T19:12:49-05:00*%
%TF.ProjectId,Episode4,45706973-6f64-4653-942e-6b696361645f,2*%
%TF.SameCoordinates,Original*%
%TF.FileFunction,Legend,Bot*%
%TF.FilePolarity,Positive*%
%FSLAX46Y46*%
G04 Gerber Fmt 4.6, Leading zero omitted, Abs format (unit mm)*
G04 Created by KiCad (PCBNEW 9.0.7) date 2026-02-22 19:12:49*
%MOMM*%
%LPD*%
G01*
G04 APERTURE LIST*
%ADD10C,1.638000*%
%ADD11C,0.800000*%
%ADD12C,7.000000*%
%ADD13C,1.800000*%
%ADD14R,2.100000X2.100000*%
%ADD15C,2.100000*%
%ADD16C,1.950000*%
%ADD17C,0.001000*%
%ADD18C,2.000000*%
%ADD19R,1.700000X1.700000*%
%ADD20C,1.700000*%
G04 APERTURE END LIST*
%LPC*%
D10*
%TO.C,J2*%
X39141000Y-19050000D03*
X34290000Y-19050000D03*
X39141000Y-21590000D03*
X34290000Y-21590000D03*
X39141000Y-24130000D03*
X34290000Y-24130000D03*
X39141000Y-26670000D03*
X34290000Y-26670000D03*
X39141000Y-29210000D03*
X34290000Y-29210000D03*
X39141000Y-31750000D03*
X34290000Y-31750000D03*
X39141000Y-34290000D03*
X34290000Y-34290000D03*
X39141000Y-36830000D03*
X34290000Y-36830000D03*
X39141000Y-39370000D03*
X34290000Y-39370000D03*
X39141000Y-41910000D03*
X34290000Y-41910000D03*
X39141000Y-44450000D03*
X34290000Y-44450000D03*
X39141000Y-46990000D03*
X34290000Y-46990000D03*
X39141000Y-49530000D03*
X34290000Y-49530000D03*
X39141000Y-52070000D03*
X34290000Y-52070000D03*
X39141000Y-54610000D03*
X34290000Y-54610000D03*
X39141000Y-57150000D03*
X34290000Y-57150000D03*
X39141000Y-59690000D03*
X34290000Y-59690000D03*
X39141000Y-62230000D03*
X34290000Y-62230000D03*
X39141000Y-64770000D03*
X34290000Y-64770000D03*
X39141000Y-67310000D03*
X34290000Y-67310000D03*
X39141000Y-69850000D03*
X34290000Y-69850000D03*
X39141000Y-72390000D03*
X34290000Y-72390000D03*
X39141000Y-74930000D03*
X34290000Y-74930000D03*
X39141000Y-77470000D03*
X34290000Y-77470000D03*
X39141000Y-80010000D03*
X34290000Y-80010000D03*
X39141000Y-82550000D03*
X34290000Y-82550000D03*
X39141000Y-85090000D03*
X34290000Y-85090000D03*
X39141000Y-87630000D03*
X34290000Y-87630000D03*
X39141000Y-90170000D03*
X34290000Y-90170000D03*
X39141000Y-92710000D03*
X34290000Y-92710000D03*
X39141000Y-95250000D03*
X34290000Y-95250000D03*
X39141000Y-97790000D03*
X34290000Y-97790000D03*
X39141000Y-100330000D03*
X34290000Y-100330000D03*
X39141000Y-102870000D03*
X34290000Y-102870000D03*
X39141000Y-105410000D03*
X34290000Y-105410000D03*
X39141000Y-107950000D03*
X34290000Y-107950000D03*
%TD*%
%TO.C,J3*%
X59461000Y-19050000D03*
X54610000Y-19050000D03*
X59461000Y-21590000D03*
X54610000Y-21590000D03*
X59461000Y-24130000D03*
X54610000Y-24130000D03*
X59461000Y-26670000D03*
X54610000Y-26670000D03*
X59461000Y-29210000D03*
X54610000Y-29210000D03*
X59461000Y-31750000D03*
X54610000Y-31750000D03*
X59461000Y-34290000D03*
X54610000Y-34290000D03*
X59461000Y-36830000D03*
X54610000Y-36830000D03*
X59461000Y-39370000D03*
X54610000Y-39370000D03*
X59461000Y-41910000D03*
X54610000Y-41910000D03*
X59461000Y-44450000D03*
X54610000Y-44450000D03*
X59461000Y-46990000D03*
X54610000Y-46990000D03*
X59461000Y-49530000D03*
X54610000Y-49530000D03*
X59461000Y-52070000D03*
X54610000Y-52070000D03*
X59461000Y-54610000D03*
X54610000Y-54610000D03*
X59461000Y-57150000D03*
X54610000Y-57150000D03*
X59461000Y-59690000D03*
X54610000Y-59690000D03*
X59461000Y-62230000D03*
X54610000Y-62230000D03*
X59461000Y-64770000D03*
X54610000Y-64770000D03*
X59461000Y-67310000D03*
X54610000Y-67310000D03*
X59461000Y-69850000D03*
X54610000Y-69850000D03*
X59461000Y-72390000D03*
X54610000Y-72390000D03*
X59461000Y-74930000D03*
X54610000Y-74930000D03*
X59461000Y-77470000D03*
X54610000Y-77470000D03*
X59461000Y-80010000D03*
X54610000Y-80010000D03*
X59461000Y-82550000D03*
X54610000Y-82550000D03*
X59461000Y-85090000D03*
X54610000Y-85090000D03*
X59461000Y-87630000D03*
X54610000Y-87630000D03*
X59461000Y-90170000D03*
X54610000Y-90170000D03*
X59461000Y-92710000D03*
X54610000Y-92710000D03*
X59461000Y-95250000D03*
X54610000Y-95250000D03*
X59461000Y-97790000D03*
X54610000Y-97790000D03*
X59461000Y-100330000D03*
X54610000Y-100330000D03*
X59461000Y-102870000D03*
X54610000Y-102870000D03*
X59461000Y-105410000D03*
X54610000Y-105410000D03*
X59461000Y-107950000D03*
X54610000Y-107950000D03*
%TD*%
D11*
%TO.C,H10*%
X288205000Y-120650000D03*
X288973845Y-118793845D03*
X288973845Y-122506155D03*
X290830000Y-118025000D03*
D12*
X290830000Y-120650000D03*
D11*
X290830000Y-123275000D03*
X292686155Y-118793845D03*
X292686155Y-122506155D03*
X293455000Y-120650000D03*
%TD*%
%TO.C,H2*%
X3725000Y-120650000D03*
X4493845Y-118793845D03*
X4493845Y-122506155D03*
X6350000Y-118025000D03*
D12*
X6350000Y-120650000D03*
D11*
X6350000Y-123275000D03*
X8206155Y-118793845D03*
X8206155Y-122506155D03*
X8975000Y-120650000D03*
%TD*%
D10*
%TO.C,J7*%
X140741000Y-19050000D03*
X135890000Y-19050000D03*
X140741000Y-21590000D03*
X135890000Y-21590000D03*
X140741000Y-24130000D03*
X135890000Y-24130000D03*
X140741000Y-26670000D03*
X135890000Y-26670000D03*
X140741000Y-29210000D03*
X135890000Y-29210000D03*
X140741000Y-31750000D03*
X135890000Y-31750000D03*
X140741000Y-34290000D03*
X135890000Y-34290000D03*
X140741000Y-36830000D03*
X135890000Y-36830000D03*
X140741000Y-39370000D03*
X135890000Y-39370000D03*
X140741000Y-41910000D03*
X135890000Y-41910000D03*
X140741000Y-44450000D03*
X135890000Y-44450000D03*
X140741000Y-46990000D03*
X135890000Y-46990000D03*
X140741000Y-49530000D03*
X135890000Y-49530000D03*
X140741000Y-52070000D03*
X135890000Y-52070000D03*
X140741000Y-54610000D03*
X135890000Y-54610000D03*
X140741000Y-57150000D03*
X135890000Y-57150000D03*
X140741000Y-59690000D03*
X135890000Y-59690000D03*
X140741000Y-62230000D03*
X135890000Y-62230000D03*
X140741000Y-64770000D03*
X135890000Y-64770000D03*
X140741000Y-67310000D03*
X135890000Y-67310000D03*
X140741000Y-69850000D03*
X135890000Y-69850000D03*
X140741000Y-72390000D03*
X135890000Y-72390000D03*
X140741000Y-74930000D03*
X135890000Y-74930000D03*
X140741000Y-77470000D03*
X135890000Y-77470000D03*
X140741000Y-80010000D03*
X135890000Y-80010000D03*
X140741000Y-82550000D03*
X135890000Y-82550000D03*
X140741000Y-85090000D03*
X135890000Y-85090000D03*
X140741000Y-87630000D03*
X135890000Y-87630000D03*
X140741000Y-90170000D03*
X135890000Y-90170000D03*
X140741000Y-92710000D03*
X135890000Y-92710000D03*
X140741000Y-95250000D03*
X135890000Y-95250000D03*
X140741000Y-97790000D03*
X135890000Y-97790000D03*
X140741000Y-100330000D03*
X135890000Y-100330000D03*
X140741000Y-102870000D03*
X135890000Y-102870000D03*
X140741000Y-105410000D03*
X135890000Y-105410000D03*
X140741000Y-107950000D03*
X135890000Y-107950000D03*
%TD*%
D13*
%TO.C,SW1*%
X282015000Y-110953000D03*
X282015000Y-102153000D03*
D14*
X275815000Y-104053000D03*
D15*
X288215000Y-104053000D03*
X275815000Y-109053000D03*
X288215000Y-109053000D03*
D16*
X282015000Y-99953000D03*
X282015000Y-113153000D03*
%TD*%
D10*
%TO.C,J9*%
X181381000Y-19050000D03*
X176530000Y-19050000D03*
X181381000Y-21590000D03*
X176530000Y-21590000D03*
X181381000Y-24130000D03*
X176530000Y-24130000D03*
X181381000Y-26670000D03*
X176530000Y-26670000D03*
X181381000Y-29210000D03*
X176530000Y-29210000D03*
X181381000Y-31750000D03*
X176530000Y-31750000D03*
X181381000Y-34290000D03*
X176530000Y-34290000D03*
X181381000Y-36830000D03*
X176530000Y-36830000D03*
X181381000Y-39370000D03*
X176530000Y-39370000D03*
X181381000Y-41910000D03*
X176530000Y-41910000D03*
X181381000Y-44450000D03*
X176530000Y-44450000D03*
X181381000Y-46990000D03*
X176530000Y-46990000D03*
X181381000Y-49530000D03*
X176530000Y-49530000D03*
X181381000Y-52070000D03*
X176530000Y-52070000D03*
X181381000Y-54610000D03*
X176530000Y-54610000D03*
X181381000Y-57150000D03*
X176530000Y-57150000D03*
X181381000Y-59690000D03*
X176530000Y-59690000D03*
X181381000Y-62230000D03*
X176530000Y-62230000D03*
X181381000Y-64770000D03*
X176530000Y-64770000D03*
X181381000Y-67310000D03*
X176530000Y-67310000D03*
X181381000Y-69850000D03*
X176530000Y-69850000D03*
X181381000Y-72390000D03*
X176530000Y-72390000D03*
X181381000Y-74930000D03*
X176530000Y-74930000D03*
X181381000Y-77470000D03*
X176530000Y-77470000D03*
X181381000Y-80010000D03*
X176530000Y-80010000D03*
X181381000Y-82550000D03*
X176530000Y-82550000D03*
X181381000Y-85090000D03*
X176530000Y-85090000D03*
X181381000Y-87630000D03*
X176530000Y-87630000D03*
X181381000Y-90170000D03*
X176530000Y-90170000D03*
X181381000Y-92710000D03*
X176530000Y-92710000D03*
X181381000Y-95250000D03*
X176530000Y-95250000D03*
X181381000Y-97790000D03*
X176530000Y-97790000D03*
X181381000Y-100330000D03*
X176530000Y-100330000D03*
X181381000Y-102870000D03*
X176530000Y-102870000D03*
X181381000Y-105410000D03*
X176530000Y-105410000D03*
X181381000Y-107950000D03*
X176530000Y-107950000D03*
%TD*%
%TO.C,J11*%
X222021000Y-19050000D03*
X217170000Y-19050000D03*
X222021000Y-21590000D03*
X217170000Y-21590000D03*
X222021000Y-24130000D03*
X217170000Y-24130000D03*
X222021000Y-26670000D03*
X217170000Y-26670000D03*
X222021000Y-29210000D03*
X217170000Y-29210000D03*
X222021000Y-31750000D03*
X217170000Y-31750000D03*
X222021000Y-34290000D03*
X217170000Y-34290000D03*
X222021000Y-36830000D03*
X217170000Y-36830000D03*
X222021000Y-39370000D03*
X217170000Y-39370000D03*
X222021000Y-41910000D03*
X217170000Y-41910000D03*
X222021000Y-44450000D03*
X217170000Y-44450000D03*
X222021000Y-46990000D03*
X217170000Y-46990000D03*
X222021000Y-49530000D03*
X217170000Y-49530000D03*
X222021000Y-52070000D03*
X217170000Y-52070000D03*
X222021000Y-54610000D03*
X217170000Y-54610000D03*
X222021000Y-57150000D03*
X217170000Y-57150000D03*
X222021000Y-59690000D03*
X217170000Y-59690000D03*
X222021000Y-62230000D03*
X217170000Y-62230000D03*
X222021000Y-64770000D03*
X217170000Y-64770000D03*
X222021000Y-67310000D03*
X217170000Y-67310000D03*
X222021000Y-69850000D03*
X217170000Y-69850000D03*
X222021000Y-72390000D03*
X217170000Y-72390000D03*
X222021000Y-74930000D03*
X217170000Y-74930000D03*
X222021000Y-77470000D03*
X217170000Y-77470000D03*
X222021000Y-80010000D03*
X217170000Y-80010000D03*
X222021000Y-82550000D03*
X217170000Y-82550000D03*
X222021000Y-85090000D03*
X217170000Y-85090000D03*
X222021000Y-87630000D03*
X217170000Y-87630000D03*
X222021000Y-90170000D03*
X217170000Y-90170000D03*
X222021000Y-92710000D03*
X217170000Y-92710000D03*
X222021000Y-95250000D03*
X217170000Y-95250000D03*
X222021000Y-97790000D03*
X217170000Y-97790000D03*
X222021000Y-100330000D03*
X217170000Y-100330000D03*
X222021000Y-102870000D03*
X217170000Y-102870000D03*
X222021000Y-105410000D03*
X217170000Y-105410000D03*
X222021000Y-107950000D03*
X217170000Y-107950000D03*
%TD*%
%TO.C,J13*%
X262661000Y-19050000D03*
X257810000Y-19050000D03*
X262661000Y-21590000D03*
X257810000Y-21590000D03*
X262661000Y-24130000D03*
X257810000Y-24130000D03*
X262661000Y-26670000D03*
X257810000Y-26670000D03*
X262661000Y-29210000D03*
X257810000Y-29210000D03*
X262661000Y-31750000D03*
X257810000Y-31750000D03*
X262661000Y-34290000D03*
X257810000Y-34290000D03*
X262661000Y-36830000D03*
X257810000Y-36830000D03*
X262661000Y-39370000D03*
X257810000Y-39370000D03*
X262661000Y-41910000D03*
X257810000Y-41910000D03*
X262661000Y-44450000D03*
X257810000Y-44450000D03*
X262661000Y-46990000D03*
X257810000Y-46990000D03*
X262661000Y-49530000D03*
X257810000Y-49530000D03*
X262661000Y-52070000D03*
X257810000Y-52070000D03*
X262661000Y-54610000D03*
X257810000Y-54610000D03*
X262661000Y-57150000D03*
X257810000Y-57150000D03*
X262661000Y-59690000D03*
X257810000Y-59690000D03*
X262661000Y-62230000D03*
X257810000Y-62230000D03*
X262661000Y-64770000D03*
X257810000Y-64770000D03*
X262661000Y-67310000D03*
X257810000Y-67310000D03*
X262661000Y-69850000D03*
X257810000Y-69850000D03*
X262661000Y-72390000D03*
X257810000Y-72390000D03*
X262661000Y-74930000D03*
X257810000Y-74930000D03*
X262661000Y-77470000D03*
X257810000Y-77470000D03*
X262661000Y-80010000D03*
X257810000Y-80010000D03*
X262661000Y-82550000D03*
X257810000Y-82550000D03*
X262661000Y-85090000D03*
X257810000Y-85090000D03*
X262661000Y-87630000D03*
X257810000Y-87630000D03*
X262661000Y-90170000D03*
X257810000Y-90170000D03*
X262661000Y-92710000D03*
X257810000Y-92710000D03*
X262661000Y-95250000D03*
X257810000Y-95250000D03*
X262661000Y-97790000D03*
X257810000Y-97790000D03*
X262661000Y-100330000D03*
X257810000Y-100330000D03*
X262661000Y-102870000D03*
X257810000Y-102870000D03*
X262661000Y-105410000D03*
X257810000Y-105410000D03*
X262661000Y-107950000D03*
X257810000Y-107950000D03*
%TD*%
%TO.C,J10*%
X201701000Y-19050000D03*
X196850000Y-19050000D03*
X201701000Y-21590000D03*
X196850000Y-21590000D03*
X201701000Y-24130000D03*
X196850000Y-24130000D03*
X201701000Y-26670000D03*
X196850000Y-26670000D03*
X201701000Y-29210000D03*
X196850000Y-29210000D03*
X201701000Y-31750000D03*
X196850000Y-31750000D03*
X201701000Y-34290000D03*
X196850000Y-34290000D03*
X201701000Y-36830000D03*
X196850000Y-36830000D03*
X201701000Y-39370000D03*
X196850000Y-39370000D03*
X201701000Y-41910000D03*
X196850000Y-41910000D03*
X201701000Y-44450000D03*
X196850000Y-44450000D03*
X201701000Y-46990000D03*
X196850000Y-46990000D03*
X201701000Y-49530000D03*
X196850000Y-49530000D03*
X201701000Y-52070000D03*
X196850000Y-52070000D03*
X201701000Y-54610000D03*
X196850000Y-54610000D03*
X201701000Y-57150000D03*
X196850000Y-57150000D03*
X201701000Y-59690000D03*
X196850000Y-59690000D03*
X201701000Y-62230000D03*
X196850000Y-62230000D03*
X201701000Y-64770000D03*
X196850000Y-64770000D03*
X201701000Y-67310000D03*
X196850000Y-67310000D03*
X201701000Y-69850000D03*
X196850000Y-69850000D03*
X201701000Y-72390000D03*
X196850000Y-72390000D03*
X201701000Y-74930000D03*
X196850000Y-74930000D03*
X201701000Y-77470000D03*
X196850000Y-77470000D03*
X201701000Y-80010000D03*
X196850000Y-80010000D03*
X201701000Y-82550000D03*
X196850000Y-82550000D03*
X201701000Y-85090000D03*
X196850000Y-85090000D03*
X201701000Y-87630000D03*
X196850000Y-87630000D03*
X201701000Y-90170000D03*
X196850000Y-90170000D03*
X201701000Y-92710000D03*
X196850000Y-92710000D03*
X201701000Y-95250000D03*
X196850000Y-95250000D03*
X201701000Y-97790000D03*
X196850000Y-97790000D03*
X201701000Y-100330000D03*
X196850000Y-100330000D03*
X201701000Y-102870000D03*
X196850000Y-102870000D03*
X201701000Y-105410000D03*
X196850000Y-105410000D03*
X201701000Y-107950000D03*
X196850000Y-107950000D03*
%TD*%
%TO.C,J5*%
X100101000Y-19050000D03*
X95250000Y-19050000D03*
X100101000Y-21590000D03*
X95250000Y-21590000D03*
X100101000Y-24130000D03*
X95250000Y-24130000D03*
X100101000Y-26670000D03*
X95250000Y-26670000D03*
X100101000Y-29210000D03*
X95250000Y-29210000D03*
X100101000Y-31750000D03*
X95250000Y-31750000D03*
X100101000Y-34290000D03*
X95250000Y-34290000D03*
X100101000Y-36830000D03*
X95250000Y-36830000D03*
X100101000Y-39370000D03*
X95250000Y-39370000D03*
X100101000Y-41910000D03*
X95250000Y-41910000D03*
X100101000Y-44450000D03*
X95250000Y-44450000D03*
X100101000Y-46990000D03*
X95250000Y-46990000D03*
X100101000Y-49530000D03*
X95250000Y-49530000D03*
X100101000Y-52070000D03*
X95250000Y-52070000D03*
X100101000Y-54610000D03*
X95250000Y-54610000D03*
X100101000Y-57150000D03*
X95250000Y-57150000D03*
X100101000Y-59690000D03*
X95250000Y-59690000D03*
X100101000Y-62230000D03*
X95250000Y-62230000D03*
X100101000Y-64770000D03*
X95250000Y-64770000D03*
X100101000Y-67310000D03*
X95250000Y-67310000D03*
X100101000Y-69850000D03*
X95250000Y-69850000D03*
X100101000Y-72390000D03*
X95250000Y-72390000D03*
X100101000Y-74930000D03*
X95250000Y-74930000D03*
X100101000Y-77470000D03*
X95250000Y-77470000D03*
X100101000Y-80010000D03*
X95250000Y-80010000D03*
X100101000Y-82550000D03*
X95250000Y-82550000D03*
X100101000Y-85090000D03*
X95250000Y-85090000D03*
X100101000Y-87630000D03*
X95250000Y-87630000D03*
X100101000Y-90170000D03*
X95250000Y-90170000D03*
X100101000Y-92710000D03*
X95250000Y-92710000D03*
X100101000Y-95250000D03*
X95250000Y-95250000D03*
X100101000Y-97790000D03*
X95250000Y-97790000D03*
X100101000Y-100330000D03*
X95250000Y-100330000D03*
X100101000Y-102870000D03*
X95250000Y-102870000D03*
X100101000Y-105410000D03*
X95250000Y-105410000D03*
X100101000Y-107950000D03*
X95250000Y-107950000D03*
%TD*%
D17*
%TO.C,J14*%
X290195000Y-68045000D03*
D18*
X285155000Y-63345000D03*
X285155000Y-59145000D03*
X285155000Y-54945000D03*
X285155000Y-50745000D03*
X285155000Y-46545000D03*
X285155000Y-42345000D03*
X285155000Y-38145000D03*
X285155000Y-33945000D03*
X285155000Y-29745000D03*
X285155000Y-25545000D03*
X285155000Y-21345000D03*
X285155000Y-17145000D03*
X290655000Y-63345000D03*
X290655000Y-59145000D03*
X290655000Y-54945000D03*
X290655000Y-50745000D03*
X290655000Y-46545000D03*
X290655000Y-42345000D03*
X290655000Y-38145000D03*
X290655000Y-33945000D03*
X290655000Y-29745000D03*
X290655000Y-25545000D03*
X290655000Y-21345000D03*
X290655000Y-17145000D03*
%TD*%
D10*
%TO.C,J6*%
X120421000Y-19050000D03*
X115570000Y-19050000D03*
X120421000Y-21590000D03*
X115570000Y-21590000D03*
X120421000Y-24130000D03*
X115570000Y-24130000D03*
X120421000Y-26670000D03*
X115570000Y-26670000D03*
X120421000Y-29210000D03*
X115570000Y-29210000D03*
X120421000Y-31750000D03*
X115570000Y-31750000D03*
X120421000Y-34290000D03*
X115570000Y-34290000D03*
X120421000Y-36830000D03*
X115570000Y-36830000D03*
X120421000Y-39370000D03*
X115570000Y-39370000D03*
X120421000Y-41910000D03*
X115570000Y-41910000D03*
X120421000Y-44450000D03*
X115570000Y-44450000D03*
X120421000Y-46990000D03*
X115570000Y-46990000D03*
X120421000Y-49530000D03*
X115570000Y-49530000D03*
X120421000Y-52070000D03*
X115570000Y-52070000D03*
X120421000Y-54610000D03*
X115570000Y-54610000D03*
X120421000Y-57150000D03*
X115570000Y-57150000D03*
X120421000Y-59690000D03*
X115570000Y-59690000D03*
X120421000Y-62230000D03*
X115570000Y-62230000D03*
X120421000Y-64770000D03*
X115570000Y-64770000D03*
X120421000Y-67310000D03*
X115570000Y-67310000D03*
X120421000Y-69850000D03*
X115570000Y-69850000D03*
X120421000Y-72390000D03*
X115570000Y-72390000D03*
X120421000Y-74930000D03*
X115570000Y-74930000D03*
X120421000Y-77470000D03*
X115570000Y-77470000D03*
X120421000Y-80010000D03*
X115570000Y-80010000D03*
X120421000Y-82550000D03*
X115570000Y-82550000D03*
X120421000Y-85090000D03*
X115570000Y-85090000D03*
X120421000Y-87630000D03*
X115570000Y-87630000D03*
X120421000Y-90170000D03*
X115570000Y-90170000D03*
X120421000Y-92710000D03*
X115570000Y-92710000D03*
X120421000Y-95250000D03*
X115570000Y-95250000D03*
X120421000Y-97790000D03*
X115570000Y-97790000D03*
X120421000Y-100330000D03*
X115570000Y-100330000D03*
X120421000Y-102870000D03*
X115570000Y-102870000D03*
X120421000Y-105410000D03*
X115570000Y-105410000D03*
X120421000Y-107950000D03*
X115570000Y-107950000D03*
%TD*%
D11*
%TO.C,H8*%
X217085000Y-120650000D03*
X217853845Y-118793845D03*
X217853845Y-122506155D03*
X219710000Y-118025000D03*
D12*
X219710000Y-120650000D03*
D11*
X219710000Y-123275000D03*
X221566155Y-118793845D03*
X221566155Y-122506155D03*
X222335000Y-120650000D03*
%TD*%
%TO.C,H5*%
X145965000Y-6350000D03*
X146733845Y-4493845D03*
X146733845Y-8206155D03*
X148590000Y-3725000D03*
D12*
X148590000Y-6350000D03*
D11*
X148590000Y-8975000D03*
X150446155Y-4493845D03*
X150446155Y-8206155D03*
X151215000Y-6350000D03*
%TD*%
%TO.C,H3*%
X74845000Y-6350000D03*
X75613845Y-4493845D03*
X75613845Y-8206155D03*
X77470000Y-3725000D03*
D12*
X77470000Y-6350000D03*
D11*
X77470000Y-8975000D03*
X79326155Y-4493845D03*
X79326155Y-8206155D03*
X80095000Y-6350000D03*
%TD*%
%TO.C,H9*%
X288205000Y-6350000D03*
X288973845Y-4493845D03*
X288973845Y-8206155D03*
X290830000Y-3725000D03*
D12*
X290830000Y-6350000D03*
D11*
X290830000Y-8975000D03*
X292686155Y-4493845D03*
X292686155Y-8206155D03*
X293455000Y-6350000D03*
%TD*%
D19*
%TO.C,J1*%
X13335000Y-19050000D03*
D20*
X10795000Y-19050000D03*
X13335000Y-21590000D03*
X10795000Y-21590000D03*
X13335000Y-24130000D03*
X10795000Y-24130000D03*
X13335000Y-26670000D03*
X10795000Y-26670000D03*
X13335000Y-29210000D03*
X10795000Y-29210000D03*
X13335000Y-31750000D03*
X10795000Y-31750000D03*
X13335000Y-34290000D03*
X10795000Y-34290000D03*
X13335000Y-36830000D03*
X10795000Y-36830000D03*
X13335000Y-39370000D03*
X10795000Y-39370000D03*
X13335000Y-41910000D03*
X10795000Y-41910000D03*
X13335000Y-44450000D03*
X10795000Y-44450000D03*
X13335000Y-46990000D03*
X10795000Y-46990000D03*
X13335000Y-49530000D03*
X10795000Y-49530000D03*
X13335000Y-52070000D03*
X10795000Y-52070000D03*
X13335000Y-54610000D03*
X10795000Y-54610000D03*
X13335000Y-57150000D03*
X10795000Y-57150000D03*
X13335000Y-59690000D03*
X10795000Y-59690000D03*
X13335000Y-62230000D03*
X10795000Y-62230000D03*
X13335000Y-64770000D03*
X10795000Y-64770000D03*
X13335000Y-67310000D03*
X10795000Y-67310000D03*
X13335000Y-69850000D03*
X10795000Y-69850000D03*
X13335000Y-72390000D03*
X10795000Y-72390000D03*
X13335000Y-74930000D03*
X10795000Y-74930000D03*
X13335000Y-77470000D03*
X10795000Y-77470000D03*
X13335000Y-80010000D03*
X10795000Y-80010000D03*
X13335000Y-82550000D03*
X10795000Y-82550000D03*
X13335000Y-85090000D03*
X10795000Y-85090000D03*
X13335000Y-87630000D03*
X10795000Y-87630000D03*
X13335000Y-90170000D03*
X10795000Y-90170000D03*
X13335000Y-92710000D03*
X10795000Y-92710000D03*
X13335000Y-95250000D03*
X10795000Y-95250000D03*
X13335000Y-97790000D03*
X10795000Y-97790000D03*
X13335000Y-100330000D03*
X10795000Y-100330000D03*
X13335000Y-102870000D03*
X10795000Y-102870000D03*
X13335000Y-105410000D03*
X10795000Y-105410000D03*
X13335000Y-107950000D03*
X10795000Y-107950000D03*
%TD*%
D10*
%TO.C,J4*%
X79781000Y-19050000D03*
X74930000Y-19050000D03*
X79781000Y-21590000D03*
X74930000Y-21590000D03*
X79781000Y-24130000D03*
X74930000Y-24130000D03*
X79781000Y-26670000D03*
X74930000Y-26670000D03*
X79781000Y-29210000D03*
X74930000Y-29210000D03*
X79781000Y-31750000D03*
X74930000Y-31750000D03*
X79781000Y-34290000D03*
X74930000Y-34290000D03*
X79781000Y-36830000D03*
X74930000Y-36830000D03*
X79781000Y-39370000D03*
X74930000Y-39370000D03*
X79781000Y-41910000D03*
X74930000Y-41910000D03*
X79781000Y-44450000D03*
X74930000Y-44450000D03*
X79781000Y-46990000D03*
X74930000Y-46990000D03*
X79781000Y-49530000D03*
X74930000Y-49530000D03*
X79781000Y-52070000D03*
X74930000Y-52070000D03*
X79781000Y-54610000D03*
X74930000Y-54610000D03*
X79781000Y-57150000D03*
X74930000Y-57150000D03*
X79781000Y-59690000D03*
X74930000Y-59690000D03*
X79781000Y-62230000D03*
X74930000Y-62230000D03*
X79781000Y-64770000D03*
X74930000Y-64770000D03*
X79781000Y-67310000D03*
X74930000Y-67310000D03*
X79781000Y-69850000D03*
X74930000Y-69850000D03*
X79781000Y-72390000D03*
X74930000Y-72390000D03*
X79781000Y-74930000D03*
X74930000Y-74930000D03*
X79781000Y-77470000D03*
X74930000Y-77470000D03*
X79781000Y-80010000D03*
X74930000Y-80010000D03*
X79781000Y-82550000D03*
X74930000Y-82550000D03*
X79781000Y-85090000D03*
X74930000Y-85090000D03*
X79781000Y-87630000D03*
X74930000Y-87630000D03*
X79781000Y-90170000D03*
X74930000Y-90170000D03*
X79781000Y-92710000D03*
X74930000Y-92710000D03*
X79781000Y-95250000D03*
X74930000Y-95250000D03*
X79781000Y-97790000D03*
X74930000Y-97790000D03*
X79781000Y-100330000D03*
X74930000Y-100330000D03*
X79781000Y-102870000D03*
X74930000Y-102870000D03*
X79781000Y-105410000D03*
X74930000Y-105410000D03*
X79781000Y-107950000D03*
X74930000Y-107950000D03*
%TD*%
%TO.C,J8*%
X161061000Y-19050000D03*
X156210000Y-19050000D03*
X161061000Y-21590000D03*
X156210000Y-21590000D03*
X161061000Y-24130000D03*
X156210000Y-24130000D03*
X161061000Y-26670000D03*
X156210000Y-26670000D03*
X161061000Y-29210000D03*
X156210000Y-29210000D03*
X161061000Y-31750000D03*
X156210000Y-31750000D03*
X161061000Y-34290000D03*
X156210000Y-34290000D03*
X161061000Y-36830000D03*
X156210000Y-36830000D03*
X161061000Y-39370000D03*
X156210000Y-39370000D03*
X161061000Y-41910000D03*
X156210000Y-41910000D03*
X161061000Y-44450000D03*
X156210000Y-44450000D03*
X161061000Y-46990000D03*
X156210000Y-46990000D03*
X161061000Y-49530000D03*
X156210000Y-49530000D03*
X161061000Y-52070000D03*
X156210000Y-52070000D03*
X161061000Y-54610000D03*
X156210000Y-54610000D03*
X161061000Y-57150000D03*
X156210000Y-57150000D03*
X161061000Y-59690000D03*
X156210000Y-59690000D03*
X161061000Y-62230000D03*
X156210000Y-62230000D03*
X161061000Y-64770000D03*
X156210000Y-64770000D03*
X161061000Y-67310000D03*
X156210000Y-67310000D03*
X161061000Y-69850000D03*
X156210000Y-69850000D03*
X161061000Y-72390000D03*
X156210000Y-72390000D03*
X161061000Y-74930000D03*
X156210000Y-74930000D03*
X161061000Y-77470000D03*
X156210000Y-77470000D03*
X161061000Y-80010000D03*
X156210000Y-80010000D03*
X161061000Y-82550000D03*
X156210000Y-82550000D03*
X161061000Y-85090000D03*
X156210000Y-85090000D03*
X161061000Y-87630000D03*
X156210000Y-87630000D03*
X161061000Y-90170000D03*
X156210000Y-90170000D03*
X161061000Y-92710000D03*
X156210000Y-92710000D03*
X161061000Y-95250000D03*
X156210000Y-95250000D03*
X161061000Y-97790000D03*
X156210000Y-97790000D03*
X161061000Y-100330000D03*
X156210000Y-100330000D03*
X161061000Y-102870000D03*
X156210000Y-102870000D03*
X161061000Y-105410000D03*
X156210000Y-105410000D03*
X161061000Y-107950000D03*
X156210000Y-107950000D03*
%TD*%
%TO.C,J12*%
X242341000Y-19050000D03*
X237490000Y-19050000D03*
X242341000Y-21590000D03*
X237490000Y-21590000D03*
X242341000Y-24130000D03*
X237490000Y-24130000D03*
X242341000Y-26670000D03*
X237490000Y-26670000D03*
X242341000Y-29210000D03*
X237490000Y-29210000D03*
X242341000Y-31750000D03*
X237490000Y-31750000D03*
X242341000Y-34290000D03*
X237490000Y-34290000D03*
X242341000Y-36830000D03*
X237490000Y-36830000D03*
X242341000Y-39370000D03*
X237490000Y-39370000D03*
X242341000Y-41910000D03*
X237490000Y-41910000D03*
X242341000Y-44450000D03*
X237490000Y-44450000D03*
X242341000Y-46990000D03*
X237490000Y-46990000D03*
X242341000Y-49530000D03*
X237490000Y-49530000D03*
X242341000Y-52070000D03*
X237490000Y-52070000D03*
X242341000Y-54610000D03*
X237490000Y-54610000D03*
X242341000Y-57150000D03*
X237490000Y-57150000D03*
X242341000Y-59690000D03*
X237490000Y-59690000D03*
X242341000Y-62230000D03*
X237490000Y-62230000D03*
X242341000Y-64770000D03*
X237490000Y-64770000D03*
X242341000Y-67310000D03*
X237490000Y-67310000D03*
X242341000Y-69850000D03*
X237490000Y-69850000D03*
X242341000Y-72390000D03*
X237490000Y-72390000D03*
X242341000Y-74930000D03*
X237490000Y-74930000D03*
X242341000Y-77470000D03*
X237490000Y-77470000D03*
X242341000Y-80010000D03*
X237490000Y-80010000D03*
X242341000Y-82550000D03*
X237490000Y-82550000D03*
X242341000Y-85090000D03*
X237490000Y-85090000D03*
X242341000Y-87630000D03*
X237490000Y-87630000D03*
X242341000Y-90170000D03*
X237490000Y-90170000D03*
X242341000Y-92710000D03*
X237490000Y-92710000D03*
X242341000Y-95250000D03*
X237490000Y-95250000D03*
X242341000Y-97790000D03*
X237490000Y-97790000D03*
X242341000Y-100330000D03*
X237490000Y-100330000D03*
X242341000Y-102870000D03*
X237490000Y-102870000D03*
X242341000Y-105410000D03*
X237490000Y-105410000D03*
X242341000Y-107950000D03*
X237490000Y-107950000D03*
%TD*%
D11*
%TO.C,H1*%
X3725000Y-6350000D03*
X4493845Y-4493845D03*
X4493845Y-8206155D03*
X6350000Y-3725000D03*
D12*
X6350000Y-6350000D03*
D11*
X6350000Y-8975000D03*
X8206155Y-4493845D03*
X8206155Y-8206155D03*
X8975000Y-6350000D03*
%TD*%
%TO.C,H4*%
X74845000Y-120650000D03*
X75613845Y-118793845D03*
X75613845Y-122506155D03*
X77470000Y-118025000D03*
D12*
X77470000Y-120650000D03*
D11*
X77470000Y-123275000D03*
X79326155Y-118793845D03*
X79326155Y-122506155D03*
X80095000Y-120650000D03*
%TD*%
%TO.C,H6*%
X145965000Y-120650000D03*
X146733845Y-118793845D03*
X146733845Y-122506155D03*
X148590000Y-118025000D03*
D12*
X148590000Y-120650000D03*
D11*
X148590000Y-123275000D03*
X150446155Y-118793845D03*
X150446155Y-122506155D03*
X151215000Y-120650000D03*
%TD*%
%TO.C,H7*%
X217085000Y-6350000D03*
X217853845Y-4493845D03*
X217853845Y-8206155D03*
X219710000Y-3725000D03*
D12*
X219710000Y-6350000D03*
D11*
X219710000Y-8975000D03*
X221566155Y-4493845D03*
X221566155Y-8206155D03*
X222335000Y-6350000D03*
%TD*%
%LPD*%
M02*
